<svg id="Composant_28_12" data-name="Composant 28 – 12" xmlns="http://www.w3.org/2000/svg" width="166.276" height="90.387" viewBox="0 0 166.276 90.387">
  <path id="Tracé_30169" data-name="Tracé 30169" d="M236.8,571.452a6.968,6.968,0,0,0-1.837-2.148,8.636,8.636,0,0,0-2.709-1.4,10.776,10.776,0,0,0-3.3-.5H204.539a2.02,2.02,0,0,0-.84.156.645.645,0,0,0-.343.655,1.346,1.346,0,0,0,.311.53,6.788,6.788,0,0,0,.436.53l5.356,5.354a10.249,10.249,0,0,0,.841.75c.311.248.642.487,1,.715a6.556,6.556,0,0,0,1.059.56,2.433,2.433,0,0,0,.9.216h4.982q3.675,0,3.674,3.738v12.705A21.7,21.7,0,0,1,219.548,592l-24.227-23.292a1.7,1.7,0,0,0-.653-.468,9.332,9.332,0,0,0-1.028-.406q-.56-.187-1.027-.311a3.117,3.117,0,0,0-.655-.126H181.043a8.079,8.079,0,0,1,1.062.68,6.973,6.973,0,0,1,1.837,2.148,5.593,5.593,0,0,1,.686,2.74v5.685l18.229,18.02a24.516,24.516,0,0,0,6.571,4.859,15.138,15.138,0,0,0,6.445,1.43h15.508q6.1,0,6.1-5.729V574.192A5.591,5.591,0,0,0,236.8,571.452Z" transform="translate(-71.208 -567.029)" fill="#da291c"/>
  <path id="Tracé_30170" data-name="Tracé 30170" d="M191.152,571.452a6.969,6.969,0,0,0-1.837-2.148,8.616,8.616,0,0,0-2.71-1.4,10.062,10.062,0,0,0-1.363-.318,11.156,11.156,0,0,0-1.937-.182H140.395a2.637,2.637,0,0,0-2.087,1.121,3.585,3.585,0,0,0-.9,2.242v19.77l2.442,2.415,8.9,8.794,1.123,1.113c.029.039.045.071.073.109h.106a2.751,2.751,0,0,0,2.025-.933,2.525,2.525,0,0,0,.217-.288,4.02,4.02,0,0,0,.685-2.451V594.12c0-2.295,1.045-3.526,3.116-3.711.064-.006.12-.02.184-.023h27.031a9.7,9.7,0,0,0,5.805-1.689c.106-.076.226-.132.329-.213a5.961,5.961,0,0,0,2.4-4.888v-9.4A5.592,5.592,0,0,0,191.152,571.452Zm-35.374,9.466q-2.867,0-2.865-2.055a1.7,1.7,0,0,1,.685-1.557,4.074,4.074,0,0,1,1.868-.417c.2-.01.4-.021.623-.021h17.065a4.941,4.941,0,0,1,2.428.406,1.688,1.688,0,0,1,.624,1.526,2.91,2.91,0,0,1-.129.887,1.392,1.392,0,0,1-.556.795,4.026,4.026,0,0,1-2.119.436Z" transform="translate(-80.859 -567.029)" fill="#1d2a36"/>
  <path id="Tracé_30171" data-name="Tracé 30171" d="M153.381,601.039a9.088,9.088,0,0,0-.623-.933l-2.671-2.64-2.442-2.414-21.917-21.665A30.092,30.092,0,0,0,121.657,570a17.986,17.986,0,0,0-2.5-1.47,15.141,15.141,0,0,0-6.445-1.432H97.2q-6.105,0-6.1,5.73V595.87a5.575,5.575,0,0,0,.685,2.74,6.947,6.947,0,0,0,1.838,2.149,8.543,8.543,0,0,0,2.709,1.4,10.693,10.693,0,0,0,3.3.5h24.414a2,2,0,0,0,.84-.155.642.642,0,0,0,.343-.653,1.346,1.346,0,0,0-.311-.53c-.209-.27-.353-.446-.436-.53l-4.781-4.782-.575-.574a10.41,10.41,0,0,0-.84-.748c-.311-.249-.645-.487-1-.715a6.8,6.8,0,0,0-1.06-.562,2.471,2.471,0,0,0-.9-.217h-4.982q-3.676,0-3.675-3.737v-12.7a22.089,22.089,0,0,1,2.367,1.307l4.984,4.792,19.243,18.5a1.7,1.7,0,0,0,.653.468,9.789,9.789,0,0,0,1.028.4c.374.126.717.228,1.027.311a3.017,3.017,0,0,0,.655.125h15.508c.981-.04,1.472-.325,1.489-.847,0-.008.006-.015.006-.023A1.581,1.581,0,0,0,153.381,601.039Z" transform="translate(-91.101 -567.096)" fill="#1d2a36"/>
  <g id="Au_premier_virage" data-name="Au premier virage" transform="translate(-594.883 -331.134)" style="isolation: isolate">
    <g id="Groupe_8488" data-name="Groupe 8488" style="isolation: isolate">
      <path id="Tracé_30235" data-name="Tracé 30235" d="M606.905,378.958h5.174l3.406,18.174h-5.253l-.624-3.458h-5.953l-2.106,3.458h-5.772Zm2.314,10.634-.65-5.1-2.834,5.1Z" fill="#1d2a36"/>
      <path id="Tracé_30236" data-name="Tracé 30236" d="M619.034,395.857a5.792,5.792,0,0,1-1.859-4.549,9.932,9.932,0,0,1,.234-2.08l2.184-10.27h5.382l-2.158,10.218a8.432,8.432,0,0,0-.182,1.4,1.811,1.811,0,0,0,.585,1.521,3.039,3.039,0,0,0,1.859.455,4.955,4.955,0,0,0,2.08-.365,2.685,2.685,0,0,0,1.209-1.091,6.581,6.581,0,0,0,.689-1.924l2.158-10.218H636.6l-2.184,10.27a11.065,11.065,0,0,1-3.263,6.149q-2.406,2.145-7.007,2.144A7.376,7.376,0,0,1,619.034,395.857Z" fill="#1d2a36"/>
      <path id="Tracé_30237" data-name="Tracé 30237" d="M647.906,378.958h8.372a6.81,6.81,0,0,1,4.29,1.287,4.347,4.347,0,0,1,1.664,3.652,8.743,8.743,0,0,1-.182,1.535,7.89,7.89,0,0,1-2.834,4.849,9.124,9.124,0,0,1-5.694,1.651h-2.99l-1.092,5.2h-5.381Zm5.512,8.71a3.878,3.878,0,0,0,2.054-.494,2.521,2.521,0,0,0,1.067-1.742,3.391,3.391,0,0,0,.1-.806,1.15,1.15,0,0,0-.547-1.092,3.668,3.668,0,0,0-1.742-.312h-1.976l-.936,4.446Z" fill="#1d2a36"/>
      <path id="Tracé_30238" data-name="Tracé 30238" d="M665.248,378.958h8.45a6.581,6.581,0,0,1,4.277,1.3,4.4,4.4,0,0,1,1.6,3.614,8.192,8.192,0,0,1-1.742,4.966,7.418,7.418,0,0,1-2.86,2.183l1.742,6.111H671.2l-1.508-5.33H667.9l-1.118,5.33H661.4Zm5.564,8.58a3.911,3.911,0,0,0,2.106-.468,2.517,2.517,0,0,0,.988-1.69,5.362,5.362,0,0,0,.1-.78,1.13,1.13,0,0,0-.533-1.079,3.784,3.784,0,0,0-1.755-.3h-2l-.91,4.316Z" fill="#1d2a36"/>
      <path id="Tracé_30239" data-name="Tracé 30239" d="M682.85,378.958h13.182l-.962,4.523h-7.8l-.521,2.5h5.616l-.884,4.134h-5.616l-.546,2.495h7.8l-.935,4.525H679Z" fill="#1d2a36"/>
      <path id="Tracé_30240" data-name="Tracé 30240" d="M697.852,378.958h4.654l2.678,10.686,7.2-10.686h5.174l-3.848,18.174h-5.018l1.69-8.06-5.408,8.06H702.74l-2.028-8.06-1.691,8.06H694Z" fill="#1d2a36"/>
      <path id="Tracé_30241" data-name="Tracé 30241" d="M720.16,378.958h5.382l-3.848,18.174h-5.382Z" fill="#1d2a36"/>
      <path id="Tracé_30242" data-name="Tracé 30242" d="M728.142,378.958h13.182l-.962,4.523h-7.8l-.52,2.5h5.616l-.884,4.134h-5.616l-.546,2.495h7.8l-.936,4.525H724.294Z" fill="#1d2a36"/>
      <path id="Tracé_30243" data-name="Tracé 30243" d="M743.144,378.958h8.45a6.577,6.577,0,0,1,4.276,1.3,4.4,4.4,0,0,1,1.6,3.614,8.215,8.215,0,0,1-1.742,4.966,7.414,7.414,0,0,1-2.861,2.183l1.742,6.111H749.1l-1.508-5.33H745.8l-1.118,5.33H739.3Zm5.563,8.58a3.909,3.909,0,0,0,2.106-.468,2.517,2.517,0,0,0,.989-1.69,5.459,5.459,0,0,0,.1-.78,1.128,1.128,0,0,0-.533-1.079,3.784,3.784,0,0,0-1.755-.3h-2l-.91,4.316Z" fill="#1d2a36"/>
    </g>
    <g id="Groupe_8489" data-name="Groupe 8489" style="isolation: isolate">
      <path id="Tracé_30244" data-name="Tracé 30244" d="M661.608,402.958h5.487l1.794,10.946,6.448-10.946h5.979l-11.1,18.174h-5.174Z" fill="#da291c"/>
      <path id="Tracé_30245" data-name="Tracé 30245" d="M683.4,402.958h5.382l-3.847,18.174h-5.382Z" fill="#da291c"/>
      <path id="Tracé_30246" data-name="Tracé 30246" d="M691.378,402.958h8.45a6.581,6.581,0,0,1,4.277,1.3,4.4,4.4,0,0,1,1.6,3.614,8.194,8.194,0,0,1-1.742,4.966,7.423,7.423,0,0,1-2.859,2.183l1.742,6.111h-5.513l-1.508-5.33H694.03l-1.118,5.33H687.53Zm5.564,8.58a3.913,3.913,0,0,0,2.106-.468,2.517,2.517,0,0,0,.988-1.69,5.409,5.409,0,0,0,.1-.78,1.131,1.131,0,0,0-.534-1.079,3.782,3.782,0,0,0-1.754-.3h-2l-.911,4.316Z" fill="#da291c"/>
      <path id="Tracé_30247" data-name="Tracé 30247" d="M714.57,402.958h5.174l3.406,18.174H717.9l-.624-3.458H711.32l-2.106,3.458h-5.772Zm2.314,10.634-.65-5.1-2.834,5.1Z" fill="#da291c"/>
      <path id="Tracé_30248" data-name="Tracé 30248" d="M728.856,420.664a6.577,6.577,0,0,1-2.885-2.483,7.071,7.071,0,0,1-1.028-3.861,10.146,10.146,0,0,1,.261-2.262,11.685,11.685,0,0,1,4.056-6.981,12.248,12.248,0,0,1,7.929-2.51,14.622,14.622,0,0,1,3.537.391,6.671,6.671,0,0,1,2.5,1.118l-1.066,4.966a5.866,5.866,0,0,0-2.3-1.248,11.57,11.57,0,0,0-3.21-.39,6.154,6.154,0,0,0-4.056,1.2,5.894,5.894,0,0,0-1.9,3.458,8.664,8.664,0,0,0-.233,1.872,2.468,2.468,0,0,0,.91,2.158,5.334,5.334,0,0,0,3.016.65,5.12,5.12,0,0,0,1.9-.312l.493-2.314h-2.5l.729-3.406h7.41l-1.95,9.1a14.831,14.831,0,0,1-7.306,1.715A10.189,10.189,0,0,1,728.856,420.664Z" fill="#da291c"/>
      <path id="Tracé_30249" data-name="Tracé 30249" d="M746.134,402.958h13.181l-.961,4.523h-7.8l-.521,2.5h5.616l-.883,4.134h-5.617l-.545,2.495h7.8l-.935,4.525H742.286Z" fill="#da291c"/>
    </g>
  </g>
</svg>
