<svg xmlns="http://www.w3.org/2000/svg" xmlns:xlink="http://www.w3.org/1999/xlink" width="453.172" height="859.358" viewBox="0 0 453.172 859.358"><defs><linearGradient id="a" x1="0.5" x2="0.5" y2="1" gradientUnits="objectBoundingBox"><stop offset="0" stop-color="#fff"/><stop offset="1" stop-color="#e3e3e3"/></linearGradient><filter id="b" x="0" y="0" width="453.172" height="859.358" filterUnits="userSpaceOnUse"><feOffset dy="7" input="SourceAlpha"/><feGaussianBlur stdDeviation="10" result="c"/><feFlood flood-opacity="0.071"/><feComposite operator="in" in2="c"/><feComposite in="SourceGraphic"/></filter><linearGradient id="d" x1="0.5" x2="0.5" y2="1" gradientUnits="objectBoundingBox"><stop offset="0" stop-color="#f6f6f6"/><stop offset="1" stop-color="#ececec"/></linearGradient><linearGradient id="e" x1="0.5" x2="0.5" y2="1" gradientUnits="objectBoundingBox"><stop offset="0" stop-color="#fff"/><stop offset="1" stop-color="#f3f3f3"/></linearGradient><linearGradient id="f" x1="0.5" x2="0.5" y2="1" gradientUnits="objectBoundingBox"><stop offset="0" stop-color="#fff"/><stop offset="1" stop-color="#e5e5e5"/></linearGradient><linearGradient id="g" x1="1" y1="0.377" x2="0" y2="0.377" gradientUnits="objectBoundingBox"><stop offset="0" stop-color="#fff" stop-opacity="0"/><stop offset="0.322" stop-color="#fdfdfd" stop-opacity="0"/><stop offset="1" stop-color="#dadada"/></linearGradient><linearGradient id="n" x1="0.5" x2="0.5" y2="1" gradientUnits="objectBoundingBox"><stop offset="0" stop-color="#f3f3f3"/><stop offset="1" stop-color="#fff"/></linearGradient><clipPath id="p"><rect width="67.191" height="66.885" fill="#fff"/></clipPath><clipPath id="q"><rect width="33.595" height="33.443" fill="#fff"/></clipPath><clipPath id="r"><rect width="23.517" height="23.41" fill="#fff"/></clipPath></defs><g transform="translate(-287.373 -63)"><g transform="translate(314.584 86)"><g transform="matrix(1, 0, 0, 1, -27.21, -23)" filter="url(#b)"><path d="M52.981,0H340.192a52.981,52.981,0,0,1,52.981,52.981v693.4a52.981,52.981,0,0,1-52.981,52.981H52.981A52.981,52.981,0,0,1,0,746.377V52.981A52.981,52.981,0,0,1,52.981,0Z" transform="translate(30 23)" fill="url(#a)"/></g><path d="M43.686,0H334.615A43.686,43.686,0,0,1,378.3,43.686V740.8a43.686,43.686,0,0,1-43.686,43.686H43.686A43.686,43.686,0,0,1,0,740.8V43.686A43.686,43.686,0,0,1,43.686,0Z" transform="translate(10.224 7.436)" fill="url(#d)"/><path d="M41.307,0H333.275a41.2,41.2,0,0,1,41.307,41.093V739.675a41.2,41.2,0,0,1-41.307,41.093H41.307A41.2,41.2,0,0,1,0,739.675V41.093A41.2,41.2,0,0,1,41.307,0Z" transform="translate(12.083 9.295)" fill="url(#e)"/><g transform="translate(395.473 185.896)"><g transform="translate(0)"><path d="M0,0H2.736a2,2,0,0,1,2,2V86.8a2,2,0,0,1-2,2H0a0,0,0,0,1,0,0V0A0,0,0,0,1,0,0Z" fill="url(#f)"/><path d="M0,0H2.736a2,2,0,0,1,2,2V86.8a2,2,0,0,1-2,2H0a0,0,0,0,1,0,0V0A0,0,0,0,1,0,0Z" fill="url(#g)"/></g></g><g transform="translate(0 166.951)"><path d="M2,0H4.736a0,0,0,0,1,0,0V55.65a0,0,0,0,1,0,0H2a2,2,0,0,1-2-2V2A2,2,0,0,1,2,0Z" fill="url(#f)"/><path d="M0,0H2.736a2,2,0,0,1,2,2V53.65a2,2,0,0,1-2,2H0a0,0,0,0,1,0,0V0A0,0,0,0,1,0,0Z" transform="translate(4.736 55.65) rotate(180)" fill="url(#g)"/></g><g transform="translate(0 240.362)"><path d="M2,0H4.736a0,0,0,0,1,0,0V55.65a0,0,0,0,1,0,0H2a2,2,0,0,1-2-2V2A2,2,0,0,1,2,0Z" fill="url(#f)"/><path d="M0,0H2.736a2,2,0,0,1,2,2V53.65a2,2,0,0,1-2,2H0a0,0,0,0,1,0,0V0A0,0,0,0,1,0,0Z" transform="translate(4.736 55.65) rotate(180)" fill="url(#g)"/></g><g transform="translate(0 108.933)"><path d="M1,0H4.736a0,0,0,0,1,0,0V29.6a0,0,0,0,1,0,0H1a1,1,0,0,1-1-1V1A1,1,0,0,1,1,0Z" fill="url(#f)"/><path d="M0,0H3.736a1,1,0,0,1,1,1V28.6a1,1,0,0,1-1,1H0a0,0,0,0,1,0,0V0A0,0,0,0,1,0,0Z" transform="translate(4.736 29.601) rotate(180)" fill="url(#g)"/></g><path d="M313.236,754.742H35.32A35.36,35.36,0,0,1,0,719.422V35.321A35.361,35.361,0,0,1,35.32,0H72.744a6.331,6.331,0,0,1,4.861,4.806c.153.672.313,1.553.5,2.571.356,1.96.8,4.392,1.456,6.848.85,3.178,4.605,13.559,17.223,13.689,4.759.049,34.432.059,58.486.059,44.249,0,95.022-.035,97.4-.059,12.617-.13,16.372-10.511,17.223-13.689.659-2.462,1.1-4.9,1.457-6.853.186-1.023.345-1.9.5-2.566A6.128,6.128,0,0,1,276.659,0h36.578a35.361,35.361,0,0,1,35.32,35.321v684.1A35.36,35.36,0,0,1,313.236,754.742Z" transform="translate(25.096 17.66)" fill="#f8f9fa"/><rect width="136.166" height="15.393" transform="translate(130.246 754.24)" fill="#f8f9fa"/><path d="M3.753.5H54.875a3.253,3.253,0,0,1,0,6.506H3.753A3.253,3.253,0,1,1,3.753.5Z" transform="translate(170.061 26.92)" fill="#f3f3f3" stroke="#f9f8f8" stroke-width="1"/><g transform="translate(240.362 23.681)"><ellipse cx="6.512" cy="6.512" rx="6.512" ry="6.512" transform="translate(0 0)" fill="url(#n)"/><circle cx="6.512" cy="6.512" r="6.512" transform="translate(0)" fill="url(#e)"/><ellipse cx="4.144" cy="4.144" rx="4.144" ry="4.144" transform="translate(2.368 2.368)" fill="#f3f3f3"/><ellipse cx="1.776" cy="1.184" rx="1.776" ry="1.184" transform="translate(4.736 2.368)" fill="#fff"/></g><path d="M-38.382,0V-8.544h5.712V-7.32h-4.2v2.364h3.948v1.224H-36.87v2.508h4.2V0ZM-28-3.12-25.458,0h-1.788l-1.632-2.052L-30.51,0h-1.776l2.544-3.12L-32.13-6.06h1.776l1.476,1.884L-27.4-6.06h1.788Zm6.7-3.1a2.45,2.45,0,0,1,1.386.4,2.694,2.694,0,0,1,.948,1.128,3.857,3.857,0,0,1,.342,1.662,3.8,3.8,0,0,1-.336,1.644,2.55,2.55,0,0,1-.942,1.092,2.556,2.556,0,0,1-1.4.384,2.412,2.412,0,0,1-1.176-.282,1.947,1.947,0,0,1-.792-.786V2.592h-1.488V-4.344a13.739,13.739,0,0,0-.1-1.716h1.4l.12,1.044a1.836,1.836,0,0,1,.78-.882A2.413,2.413,0,0,1-21.306-6.216Zm-.408,5.136a1.411,1.411,0,0,0,1.164-.5,2.237,2.237,0,0,0,.408-1.44,2.391,2.391,0,0,0-.408-1.482A1.365,1.365,0,0,0-21.7-5.04a1.411,1.411,0,0,0-1.176.516,2.333,2.333,0,0,0-.408,1.476,2.285,2.285,0,0,0,.408,1.458A1.4,1.4,0,0,0-21.714-1.08ZM-17.322,0V-8.832h1.488V0Zm5.88.1a3.334,3.334,0,0,1-1.626-.384,2.623,2.623,0,0,1-1.08-1.1,3.528,3.528,0,0,1-.378-1.674,3.528,3.528,0,0,1,.378-1.674,2.623,2.623,0,0,1,1.08-1.1,3.334,3.334,0,0,1,1.626-.384,3.274,3.274,0,0,1,1.608.384,2.632,2.632,0,0,1,1.074,1.1A3.528,3.528,0,0,1-8.382-3.06,3.528,3.528,0,0,1-8.76-1.386a2.632,2.632,0,0,1-1.074,1.1A3.274,3.274,0,0,1-11.442.1Zm-.012-1.176a1.415,1.415,0,0,0,1.17-.5,2.322,2.322,0,0,0,.4-1.482,2.328,2.328,0,0,0-.408-1.482,1.391,1.391,0,0,0-1.152-.51,1.4,1.4,0,0,0-1.164.51,2.328,2.328,0,0,0-.408,1.482,2.322,2.322,0,0,0,.4,1.482A1.4,1.4,0,0,0-11.454-1.08ZM-3.822-6.2a1.685,1.685,0,0,1,.6.1L-3.234-4.74A2.086,2.086,0,0,0-4.026-4.9a1.5,1.5,0,0,0-1.17.444,1.685,1.685,0,0,0-.4,1.176V0H-7.086V-4.344a13.739,13.739,0,0,0-.1-1.716h1.4l.12,1.068a1.8,1.8,0,0,1,.72-.9A2.039,2.039,0,0,1-3.822-6.2ZM2.8-2.952H-1.374A2.189,2.189,0,0,0-.888-1.518a1.712,1.712,0,0,0,1.3.462A2.99,2.99,0,0,0,2.262-1.7L2.694-.672a3.378,3.378,0,0,1-1.062.558A4.017,4.017,0,0,1,.354.1a3.188,3.188,0,0,1-2.34-.84,3.088,3.088,0,0,1-.852-2.3,3.53,3.53,0,0,1,.372-1.644A2.746,2.746,0,0,1-1.422-5.814,2.911,2.911,0,0,1,.1-6.216a2.517,2.517,0,0,1,1.974.81A3.215,3.215,0,0,1,2.8-3.18ZM.138-5.136a1.373,1.373,0,0,0-.978.354,1.734,1.734,0,0,0-.486,1.026h2.82A1.678,1.678,0,0,0,1.08-4.788,1.26,1.26,0,0,0,.138-5.136ZM7.338-6.2a1.685,1.685,0,0,1,.6.1L7.926-4.74A2.086,2.086,0,0,0,7.134-4.9a1.5,1.5,0,0,0-1.17.444,1.685,1.685,0,0,0-.4,1.176V0H4.074V-4.344a13.739,13.739,0,0,0-.1-1.716h1.4L5.5-4.992a1.8,1.8,0,0,1,.72-.9A2.039,2.039,0,0,1,7.338-6.2ZM12.066,0V-8.832h1.488V0Zm4.656-8.544v1.1a2.912,2.912,0,0,1-.216,1.146,3.313,3.313,0,0,1-.732,1.026l-.612-.48a2.366,2.366,0,0,0,.648-1.116h-.768v-1.68ZM23.61-6.06V0H22.134V-.972a1.947,1.947,0,0,1-.792.786A2.412,2.412,0,0,1,20.166.1a2.586,2.586,0,0,1-1.4-.384,2.536,2.536,0,0,1-.948-1.092,3.8,3.8,0,0,1-.336-1.644,3.857,3.857,0,0,1,.342-1.662,2.677,2.677,0,0,1,.954-1.128,2.478,2.478,0,0,1,1.392-.4,2.412,2.412,0,0,1,1.176.282,1.947,1.947,0,0,1,.792.786V-6.06ZM20.574-1.08A1.384,1.384,0,0,0,21.726-1.6a2.289,2.289,0,0,0,.408-1.452,2.333,2.333,0,0,0-.408-1.476,1.4,1.4,0,0,0-1.164-.516,1.382,1.382,0,0,0-1.158.534,2.365,2.365,0,0,0-.414,1.482,2.214,2.214,0,0,0,.414,1.44A1.429,1.429,0,0,0,20.574-1.08ZM28.7-6.216a2.45,2.45,0,0,1,1.386.4,2.694,2.694,0,0,1,.948,1.128,3.857,3.857,0,0,1,.342,1.662,3.8,3.8,0,0,1-.336,1.644A2.55,2.55,0,0,1,30.1-.288,2.556,2.556,0,0,1,28.7.1a2.412,2.412,0,0,1-1.176-.282,1.947,1.947,0,0,1-.792-.786V2.592H25.242V-4.344a13.739,13.739,0,0,0-.1-1.716h1.4l.12,1.044a1.836,1.836,0,0,1,.78-.882A2.413,2.413,0,0,1,28.7-6.216ZM28.29-1.08a1.411,1.411,0,0,0,1.164-.5,2.237,2.237,0,0,0,.408-1.44,2.391,2.391,0,0,0-.408-1.482A1.365,1.365,0,0,0,28.3-5.04a1.411,1.411,0,0,0-1.176.516,2.333,2.333,0,0,0-.408,1.476,2.285,2.285,0,0,0,.408,1.458A1.4,1.4,0,0,0,28.29-1.08Zm7.848-5.136a2.45,2.45,0,0,1,1.386.4,2.694,2.694,0,0,1,.948,1.128,3.857,3.857,0,0,1,.342,1.662,3.8,3.8,0,0,1-.336,1.644,2.55,2.55,0,0,1-.942,1.092,2.556,2.556,0,0,1-1.4.384,2.412,2.412,0,0,1-1.176-.282,1.947,1.947,0,0,1-.792-.786V2.592H32.682V-4.344a13.739,13.739,0,0,0-.1-1.716h1.4l.12,1.044a1.836,1.836,0,0,1,.78-.882A2.413,2.413,0,0,1,36.138-6.216ZM35.73-1.08a1.411,1.411,0,0,0,1.164-.5,2.237,2.237,0,0,0,.408-1.44,2.391,2.391,0,0,0-.408-1.482,1.365,1.365,0,0,0-1.152-.534,1.411,1.411,0,0,0-1.176.516,2.333,2.333,0,0,0-.408,1.476,2.285,2.285,0,0,0,.408,1.458A1.4,1.4,0,0,0,35.73-1.08Z" transform="translate(198.207 731.625)"/><path d="M37.238,28.252q-4.2,0-6.384-2.156T28.67,19.768V8.064h4.284v11.9A5.3,5.3,0,0,0,34.06,23.59a4.026,4.026,0,0,0,3.178,1.246A3.982,3.982,0,0,0,40.4,23.59a5.345,5.345,0,0,0,1.092-3.626V8.064h4.312v11.7q0,4.144-2.2,6.314T37.238,28.252ZM58.154,13.44q5.04,0,5.04,5.964V28H58.966V19.6a3.48,3.48,0,0,0-.546-2.17,2.068,2.068,0,0,0-1.722-.686,2.925,2.925,0,0,0-2.24.9,3.379,3.379,0,0,0-.84,2.408V28H49.39V17.864a33.007,33.007,0,0,0-.224-4.06h3.976l.28,2.24A5.223,5.223,0,0,1,55.4,14.112,5.613,5.613,0,0,1,58.154,13.44Zm21.14,7.812H69.942a4.284,4.284,0,0,0,1.036,2.9,3.758,3.758,0,0,0,2.744.91,6.871,6.871,0,0,0,2.184-.364,6.965,6.965,0,0,0,2.016-1.064l1.12,2.856a7.448,7.448,0,0,1-2.506,1.274,10.163,10.163,0,0,1-3.01.462A7.762,7.762,0,0,1,67.9,26.25a7.143,7.143,0,0,1-2.044-5.39,8.213,8.213,0,0,1,.882-3.85,6.424,6.424,0,0,1,2.478-2.632,6.994,6.994,0,0,1,3.612-.938,6.019,6.019,0,0,1,4.732,1.946,7.6,7.6,0,0,1,1.736,5.25Zm-6.356-4.844a2.72,2.72,0,0,0-1.946.7,3.509,3.509,0,0,0-.966,2.044h5.628Q75.318,16.408,72.938,16.408ZM89.822,28V7.392H94.05V28Zm7.672,0V13.8h4.228V28Zm-.14-20.86h4.508v3.976H97.354ZM110.6,28.224a10.4,10.4,0,0,1-6.356-1.736l1.12-2.94a8.665,8.665,0,0,0,2.492,1.246,9.231,9.231,0,0,0,2.8.434,3.428,3.428,0,0,0,1.68-.336,1.068,1.068,0,0,0,.588-.98.986.986,0,0,0-.42-.84,4.091,4.091,0,0,0-1.484-.532l-2.324-.532a5.934,5.934,0,0,1-3.01-1.428,3.548,3.548,0,0,1-.966-2.6,3.842,3.842,0,0,1,.77-2.352,5,5,0,0,1,2.142-1.61,8.143,8.143,0,0,1,3.164-.574,9.757,9.757,0,0,1,2.968.462,8.963,8.963,0,0,1,2.6,1.3l-1.176,2.828a9.188,9.188,0,0,0-2.226-1.148,6.711,6.711,0,0,0-2.2-.392,3.079,3.079,0,0,0-1.624.364,1.13,1.13,0,0,0-.588,1.008.957.957,0,0,0,.35.77,3.023,3.023,0,0,0,1.246.49l2.38.532a6.342,6.342,0,0,1,3.164,1.512,3.691,3.691,0,0,1,.98,2.688,3.736,3.736,0,0,1-1.624,3.192A7.458,7.458,0,0,1,110.6,28.224ZM124.43,16.968v5.516a2.189,2.189,0,0,0,.616,1.722,2.317,2.317,0,0,0,1.6.546,5.844,5.844,0,0,0,1.4-.2v3.276a6.731,6.731,0,0,1-2.436.392,5.231,5.231,0,0,1-4.018-1.484,5.879,5.879,0,0,1-1.386-4.172v-5.6h-2.688V13.8H120.2V10.472L124.43,9.1v4.7h3.612v3.164Zm18.508,4.284h-9.352a4.284,4.284,0,0,0,1.036,2.9,3.758,3.758,0,0,0,2.744.91,6.87,6.87,0,0,0,2.184-.364,6.965,6.965,0,0,0,2.016-1.064l1.12,2.856a7.448,7.448,0,0,1-2.506,1.274,10.163,10.163,0,0,1-3.01.462,7.762,7.762,0,0,1-5.628-1.974,7.143,7.143,0,0,1-2.044-5.39,8.213,8.213,0,0,1,.882-3.85,6.424,6.424,0,0,1,2.478-2.632,6.994,6.994,0,0,1,3.612-.938,6.019,6.019,0,0,1,4.732,1.946,7.6,7.6,0,0,1,1.736,5.25Zm-6.356-4.844a2.72,2.72,0,0,0-1.946.7,3.509,3.509,0,0,0-.966,2.044H139.3Q138.962,16.408,136.582,16.408Zm31.108-2.6V28h-4.172V25.9a4.468,4.468,0,0,1-1.82,1.708,5.646,5.646,0,0,1-2.66.616,5.963,5.963,0,0,1-3.262-.9,6.026,6.026,0,0,1-2.212-2.562,8.814,8.814,0,0,1-.8-3.85,9.092,9.092,0,0,1,.8-3.892,6.232,6.232,0,0,1,2.226-2.646,5.783,5.783,0,0,1,3.248-.938,5.446,5.446,0,0,1,2.66.644,4.661,4.661,0,0,1,1.82,1.736V13.8ZM160.27,25a2.888,2.888,0,0,0,2.408-1.064,4.882,4.882,0,0,0,.84-3.08,4.944,4.944,0,0,0-.84-3.094,2.872,2.872,0,0,0-2.408-1.078,2.905,2.905,0,0,0-2.436,1.12,4.962,4.962,0,0,0-.868,3.108,4.713,4.713,0,0,0,.854,3.038A2.976,2.976,0,0,0,160.27,25Zm-1.008-13.02L154.95,6.216h4.144l2.772,5.768ZM175.446,30.6a6.023,6.023,0,0,0,1.372.2,2.191,2.191,0,0,0,1.554-.56,2.265,2.265,0,0,0,.6-1.736V13.8H183.2V28.616a5.917,5.917,0,0,1-1.372,4.172,5.147,5.147,0,0,1-3.976,1.484,6.812,6.812,0,0,1-2.408-.364Zm3.36-23.464h4.508v3.976h-4.508Zm14.616,21.084a8.355,8.355,0,0,1-3.962-.9,6.189,6.189,0,0,1-2.6-2.576,8.106,8.106,0,0,1-.91-3.92,8.106,8.106,0,0,1,.91-3.92,6.189,6.189,0,0,1,2.6-2.576,8.355,8.355,0,0,1,3.962-.9,8.209,8.209,0,0,1,3.92.9,6.209,6.209,0,0,1,2.59,2.576,8.106,8.106,0,0,1,.91,3.92,8.106,8.106,0,0,1-.91,3.92,6.209,6.209,0,0,1-2.59,2.576A8.209,8.209,0,0,1,193.422,28.224Zm0-3.22a2.881,2.881,0,0,0,2.394-1.036,4.975,4.975,0,0,0,.826-3.136,4.985,4.985,0,0,0-.826-3.122,2.864,2.864,0,0,0-2.394-1.05,2.936,2.936,0,0,0-2.436,1.05,4.924,4.924,0,0,0-.84,3.122Q190.146,25,193.422,25ZM217.11,13.8V28h-4.116V25.928a4.554,4.554,0,0,1-1.764,1.708,5.114,5.114,0,0,1-2.464.588,5.04,5.04,0,0,1-3.976-1.484,6.585,6.585,0,0,1-1.316-4.48V13.8H207.7v8.54q0,2.576,2.212,2.576a2.736,2.736,0,0,0,2.128-.9,3.368,3.368,0,0,0,.812-2.352V13.8Zm11.676-.336a3.645,3.645,0,0,1,1.512.28l-.028,3.864a4.926,4.926,0,0,0-2.072-.476,3.407,3.407,0,0,0-2.562.91,3.489,3.489,0,0,0-.882,2.534V28h-4.228V17.864a33.007,33.007,0,0,0-.224-4.06h3.976l.28,2.436a4.162,4.162,0,0,1,1.666-2.058A4.707,4.707,0,0,1,228.786,13.468ZM254.1,7.392V28h-4.172V25.9a4.468,4.468,0,0,1-1.82,1.708,5.646,5.646,0,0,1-2.66.616,5.783,5.783,0,0,1-3.248-.938,6.247,6.247,0,0,1-2.226-2.632,9,9,0,0,1-.8-3.878,8.814,8.814,0,0,1,.8-3.85,6.122,6.122,0,0,1,2.212-2.576,5.894,5.894,0,0,1,3.262-.91,5.63,5.63,0,0,1,2.6.6,4.435,4.435,0,0,1,1.82,1.666V7.392ZM246.678,25a2.872,2.872,0,0,0,2.408-1.078,4.944,4.944,0,0,0,.84-3.094,4.834,4.834,0,0,0-.854-3.066,2.881,2.881,0,0,0-2.394-1.078,2.967,2.967,0,0,0-2.436,1.064,4.669,4.669,0,0,0-.868,3.024,4.951,4.951,0,0,0,.868,3.122A2.92,2.92,0,0,0,246.678,25Zm23.576-3.752H260.9a4.284,4.284,0,0,0,1.036,2.9,3.758,3.758,0,0,0,2.744.91,6.87,6.87,0,0,0,2.184-.364,6.965,6.965,0,0,0,2.016-1.064L270,26.488a7.449,7.449,0,0,1-2.506,1.274,10.163,10.163,0,0,1-3.01.462,7.762,7.762,0,0,1-5.628-1.974,7.143,7.143,0,0,1-2.044-5.39,8.213,8.213,0,0,1,.882-3.85,6.423,6.423,0,0,1,2.478-2.632,6.994,6.994,0,0,1,3.612-.938,6.019,6.019,0,0,1,4.732,1.946,7.6,7.6,0,0,1,1.736,5.25ZM263.9,16.408a2.72,2.72,0,0,0-1.946.7,3.509,3.509,0,0,0-.966,2.044h5.628Q266.278,16.408,263.9,16.408ZM60.87,53.44a5.783,5.783,0,0,1,3.248.938,6.232,6.232,0,0,1,2.226,2.646,9.092,9.092,0,0,1,.8,3.892,8.947,8.947,0,0,1-.784,3.85,5.9,5.9,0,0,1-2.212,2.562,6.033,6.033,0,0,1-3.276.9,5.646,5.646,0,0,1-2.66-.616A4.283,4.283,0,0,1,56.418,65.9v8.148H52.19V57.864a33.007,33.007,0,0,0-.224-4.06h3.976l.28,2.352a4.275,4.275,0,0,1,1.806-1.988A5.528,5.528,0,0,1,60.87,53.44ZM59.666,65a2.9,2.9,0,0,0,2.408-1.05,4.769,4.769,0,0,0,.84-3.038,5.021,5.021,0,0,0-.854-3.108,2.837,2.837,0,0,0-2.394-1.12,2.911,2.911,0,0,0-2.422,1.078,4.885,4.885,0,0,0-.854,3.094,4.824,4.824,0,0,0,.854,3.08A2.927,2.927,0,0,0,59.666,65Zm10.192,3V47.392h4.228V68ZM91.082,53.8V68H86.966V65.928A4.554,4.554,0,0,1,85.2,67.636a5.114,5.114,0,0,1-2.464.588,5.04,5.04,0,0,1-3.976-1.484,6.585,6.585,0,0,1-1.316-4.48V53.8h4.228v8.54q0,2.576,2.212,2.576a2.736,2.736,0,0,0,2.128-.9,3.368,3.368,0,0,0,.812-2.352V53.8Zm8.848,14.42a10.4,10.4,0,0,1-6.356-1.736l1.12-2.94a8.665,8.665,0,0,0,2.492,1.246,9.231,9.231,0,0,0,2.8.434,3.428,3.428,0,0,0,1.68-.336,1.068,1.068,0,0,0,.588-.98.986.986,0,0,0-.42-.84,4.091,4.091,0,0,0-1.484-.532l-2.324-.532a5.934,5.934,0,0,1-3.01-1.428,3.548,3.548,0,0,1-.966-2.6,3.842,3.842,0,0,1,.77-2.352,5,5,0,0,1,2.142-1.61,8.143,8.143,0,0,1,3.164-.574,9.757,9.757,0,0,1,2.968.462,8.963,8.963,0,0,1,2.6,1.3l-1.176,2.828a9.188,9.188,0,0,0-2.226-1.148,6.712,6.712,0,0,0-2.2-.392,3.079,3.079,0,0,0-1.624.364,1.13,1.13,0,0,0-.588,1.008.957.957,0,0,0,.35.77,3.023,3.023,0,0,0,1.246.49l2.38.532a6.342,6.342,0,0,1,3.164,1.512,3.691,3.691,0,0,1,.98,2.688,3.736,3.736,0,0,1-1.624,3.192A7.458,7.458,0,0,1,99.93,68.224Zm30.744-20.832V68H126.5V65.9a4.468,4.468,0,0,1-1.82,1.708,5.646,5.646,0,0,1-2.66.616,5.783,5.783,0,0,1-3.248-.938,6.248,6.248,0,0,1-2.226-2.632,9,9,0,0,1-.8-3.878,8.814,8.814,0,0,1,.8-3.85,6.122,6.122,0,0,1,2.212-2.576,5.894,5.894,0,0,1,3.262-.91,5.63,5.63,0,0,1,2.6.6,4.435,4.435,0,0,1,1.82,1.666V47.392ZM123.254,65a2.872,2.872,0,0,0,2.408-1.078,4.944,4.944,0,0,0,.84-3.094,4.834,4.834,0,0,0-.854-3.066,2.881,2.881,0,0,0-2.394-1.078,2.967,2.967,0,0,0-2.436,1.064,4.669,4.669,0,0,0-.868,3.024,4.951,4.951,0,0,0,.868,3.122A2.92,2.92,0,0,0,123.254,65Zm23.576-3.752h-9.352a4.284,4.284,0,0,0,1.036,2.9,3.758,3.758,0,0,0,2.744.91,6.87,6.87,0,0,0,2.184-.364,6.965,6.965,0,0,0,2.016-1.064l1.12,2.856a7.448,7.448,0,0,1-2.506,1.274,10.163,10.163,0,0,1-3.01.462,7.762,7.762,0,0,1-5.628-1.974,7.143,7.143,0,0,1-2.044-5.39,8.213,8.213,0,0,1,.882-3.85,6.424,6.424,0,0,1,2.478-2.632,6.994,6.994,0,0,1,3.612-.938,6.019,6.019,0,0,1,4.732,1.946,7.6,7.6,0,0,1,1.736,5.25Zm-6.356-4.844a2.72,2.72,0,0,0-1.946.7,3.509,3.509,0,0,0-.966,2.044h5.628Q142.854,56.408,140.474,56.408Zm44.044,11.844a6.423,6.423,0,0,1-5.53-2.632Q177.07,62.988,177.07,58q0-4.928,1.918-7.532a7.174,7.174,0,0,1,11.06,0q1.918,2.6,1.918,7.532,0,4.984-1.918,7.616A6.423,6.423,0,0,1,184.518,68.252Zm0-3.36a2.513,2.513,0,0,0,2.408-1.624A13.371,13.371,0,0,0,187.682,58a12.971,12.971,0,0,0-.756-5.166,2.606,2.606,0,0,0-4.816,0A12.971,12.971,0,0,0,181.354,58a13.37,13.37,0,0,0,.756,5.264A2.513,2.513,0,0,0,184.518,64.892Zm16.8,3.36a6.423,6.423,0,0,1-5.53-2.632Q193.87,62.988,193.87,58q0-4.928,1.918-7.532a7.174,7.174,0,0,1,11.06,0q1.918,2.6,1.918,7.532,0,4.984-1.918,7.616A6.423,6.423,0,0,1,201.318,68.252Zm0-3.36a2.513,2.513,0,0,0,2.408-1.624A13.371,13.371,0,0,0,204.482,58a12.971,12.971,0,0,0-.756-5.166,2.606,2.606,0,0,0-4.816,0A12.971,12.971,0,0,0,198.154,58a13.37,13.37,0,0,0,.756,5.264A2.513,2.513,0,0,0,201.318,64.892Zm16.8,3.36a6.423,6.423,0,0,1-5.53-2.632Q210.67,62.988,210.67,58q0-4.928,1.918-7.532a7.174,7.174,0,0,1,11.06,0q1.918,2.6,1.918,7.532,0,4.984-1.918,7.616A6.423,6.423,0,0,1,218.118,68.252Zm0-3.36a2.513,2.513,0,0,0,2.408-1.624A13.371,13.371,0,0,0,221.282,58a12.971,12.971,0,0,0-.756-5.166,2.606,2.606,0,0,0-4.816,0A12.971,12.971,0,0,0,214.954,58a13.37,13.37,0,0,0,.756,5.264A2.513,2.513,0,0,0,218.118,64.892ZM106.818,93.8V108h-4.172v-2.1a4.468,4.468,0,0,1-1.82,1.708,5.646,5.646,0,0,1-2.66.616,5.963,5.963,0,0,1-3.262-.9,6.026,6.026,0,0,1-2.212-2.562,8.813,8.813,0,0,1-.8-3.85,9.092,9.092,0,0,1,.8-3.892,6.232,6.232,0,0,1,2.226-2.646,5.783,5.783,0,0,1,3.248-.938,5.446,5.446,0,0,1,2.66.644,4.66,4.66,0,0,1,1.82,1.736V93.8ZM99.4,105a2.888,2.888,0,0,0,2.408-1.064,4.882,4.882,0,0,0,.84-3.08,4.944,4.944,0,0,0-.84-3.094A2.872,2.872,0,0,0,99.4,96.688a2.905,2.905,0,0,0-2.436,1.12,4.962,4.962,0,0,0-.868,3.108,4.713,4.713,0,0,0,.854,3.038A2.976,2.976,0,0,0,99.4,105Zm10.836,3V87.392h4.228V108Zm7.672,0V93.8h4.228V108Zm-.14-20.86h4.508v3.976h-4.508Zm25.172,6.3a4.388,4.388,0,0,1,3.626,1.47,7.064,7.064,0,0,1,1.19,4.494V108h-4.228V99.544a3.728,3.728,0,0,0-.476-2.142,1.8,1.8,0,0,0-1.568-.658,2.375,2.375,0,0,0-1.988.9,4.007,4.007,0,0,0-.7,2.52V108h-4.228V99.544a3.652,3.652,0,0,0-.49-2.128,1.794,1.794,0,0,0-1.554-.672,2.415,2.415,0,0,0-2,.9,3.951,3.951,0,0,0-.714,2.52V108h-4.228V97.864a33.008,33.008,0,0,0-.224-4.06h3.976l.252,2.128a4.477,4.477,0,0,1,1.806-1.848,5.425,5.425,0,0,1,2.674-.644,4.071,4.071,0,0,1,4.2,2.632,5.189,5.189,0,0,1,1.946-1.918A5.4,5.4,0,0,1,142.938,93.44Zm20.888,7.812h-9.352a4.284,4.284,0,0,0,1.036,2.9,3.758,3.758,0,0,0,2.744.91,6.87,6.87,0,0,0,2.184-.364,6.965,6.965,0,0,0,2.016-1.064l1.12,2.856a7.448,7.448,0,0,1-2.506,1.274,10.163,10.163,0,0,1-3.01.462,7.762,7.762,0,0,1-5.628-1.974,7.143,7.143,0,0,1-2.044-5.39,8.213,8.213,0,0,1,.882-3.85,6.424,6.424,0,0,1,2.478-2.632,6.994,6.994,0,0,1,3.612-.938,6.019,6.019,0,0,1,4.732,1.946,7.6,7.6,0,0,1,1.736,5.25Zm-6.356-4.844a2.72,2.72,0,0,0-1.946.7,3.509,3.509,0,0,0-.966,2.044h5.628Q159.85,96.408,157.47,96.408Zm17.78-2.968q5.04,0,5.04,5.964V108h-4.228V99.6a3.48,3.48,0,0,0-.546-2.17,2.068,2.068,0,0,0-1.722-.686,2.925,2.925,0,0,0-2.24.9,3.379,3.379,0,0,0-.84,2.408V108h-4.228V97.864a33.006,33.006,0,0,0-.224-4.06h3.976l.28,2.24a5.223,5.223,0,0,1,1.974-1.932A5.613,5.613,0,0,1,175.25,93.44Zm13.72,3.528v5.516a2.189,2.189,0,0,0,.616,1.722,2.317,2.317,0,0,0,1.6.546,5.844,5.844,0,0,0,1.4-.2v3.276a6.731,6.731,0,0,1-2.436.392,5.231,5.231,0,0,1-4.018-1.484,5.879,5.879,0,0,1-1.386-4.172v-5.6h-2.688V93.8h2.688V90.472L188.97,89.1v4.7h3.612v3.164Zm11.2,11.256a10.4,10.4,0,0,1-6.356-1.736l1.12-2.94a8.665,8.665,0,0,0,2.492,1.246,9.231,9.231,0,0,0,2.8.434,3.428,3.428,0,0,0,1.68-.336,1.068,1.068,0,0,0,.588-.98.986.986,0,0,0-.42-.84,4.091,4.091,0,0,0-1.484-.532l-2.324-.532a5.934,5.934,0,0,1-3.01-1.428,3.548,3.548,0,0,1-.966-2.6,3.842,3.842,0,0,1,.77-2.352,5,5,0,0,1,2.142-1.61,8.143,8.143,0,0,1,3.164-.574,9.757,9.757,0,0,1,2.968.462,8.963,8.963,0,0,1,2.6,1.3l-1.176,2.828a9.187,9.187,0,0,0-2.226-1.148,6.711,6.711,0,0,0-2.2-.392,3.079,3.079,0,0,0-1.624.364,1.13,1.13,0,0,0-.588,1.008.957.957,0,0,0,.35.77,3.023,3.023,0,0,0,1.246.49l2.38.532a6.342,6.342,0,0,1,3.164,1.512,3.691,3.691,0,0,1,.98,2.688,3.736,3.736,0,0,1-1.624,3.192A7.458,7.458,0,0,1,200.17,108.224Z" transform="translate(60.207 397.625)"/><path d="M16.6,24.5V28H2.906V24.78l6.636-7.056a6.379,6.379,0,0,0,2.072-4.088,2.24,2.24,0,0,0-.686-1.778,2.949,2.949,0,0,0-2-.6,9.25,9.25,0,0,0-5.292,1.932l-1.4-3.136a8.769,8.769,0,0,1,3.08-1.638,12.392,12.392,0,0,1,3.808-.6,7.58,7.58,0,0,1,4.942,1.5A4.921,4.921,0,0,1,15.9,13.328a7.239,7.239,0,0,1-.714,3.206A13.844,13.844,0,0,1,12.79,19.8L8.282,24.5Z" transform="translate(216.207 437.625)"/></g><g transform="translate(368.247 118.531)"><g transform="translate(0 0)"><rect width="123" height="4" rx="2" transform="translate(84.753 723.094)"/><g transform="translate(282.74 2.675)"><g transform="translate(0)" fill="none" stroke="#7c7c7c" stroke-width="0.7"><rect width="19.756" height="9.712" rx="2" stroke="none"/><rect x="0.35" y="0.35" width="19.056" height="9.012" rx="1.65" fill="none"/></g><rect width="13.945" height="6.475" rx="0.7" transform="translate(1.743 1.619)"/><path d="M0,3.577H0V0A1.914,1.914,0,0,1,1.361,1.789,1.914,1.914,0,0,1,0,3.577Z" transform="translate(20.718 3.237)" fill="#7c7c7c"/></g><path d="M6.606,8.809a.281.281,0,0,1-.192-.074L4.686,7.115a.24.24,0,0,1,.009-.367,3.135,3.135,0,0,1,3.823,0,.24.24,0,0,1,.009.367L6.8,8.734A.277.277,0,0,1,6.606,8.809ZM9.641,5.967A.281.281,0,0,1,9.456,5.9a4.487,4.487,0,0,0-5.7,0,.281.281,0,0,1-.185.068.278.278,0,0,1-.19-.073l-1-.937a.246.246,0,0,1,0-.369A6.442,6.442,0,0,1,6.607,3.047a6.442,6.442,0,0,1,4.218,1.541.246.246,0,0,1,0,.369l-1,.937A.278.278,0,0,1,9.641,5.967Zm2.3-2.157a.273.273,0,0,1-.185-.07,7.765,7.765,0,0,0-5.15-1.911A7.762,7.762,0,0,0,1.456,3.74a.273.273,0,0,1-.185.07.278.278,0,0,1-.19-.073l-1-.937A.247.247,0,0,1,0,2.616a.25.25,0,0,1,.083-.183A9.779,9.779,0,0,1,6.606,0a9.779,9.779,0,0,1,6.523,2.434.252.252,0,0,1,.083.183.247.247,0,0,1-.081.184l-1,.937A.277.277,0,0,1,11.942,3.81Z" transform="translate(265.949 2.744)"/><path d="M14.339,8.877h-.9a.867.867,0,0,1-.9-.832V.832a.867.867,0,0,1,.9-.832h.9a.867.867,0,0,1,.9.832V8.045A.867.867,0,0,1,14.339,8.877Zm-4.182,0h-.9a.867.867,0,0,1-.9-.832V2.774a.867.867,0,0,1,.9-.832h.9a.867.867,0,0,1,.9.832V8.045A.867.867,0,0,1,10.157,8.877Zm-4.183,0h-.9a.867.867,0,0,1-.9-.832V4.716a.867.867,0,0,1,.9-.832h.9a.867.867,0,0,1,.9.832V8.045A.867.867,0,0,1,5.974,8.877Zm-4.182,0H.9A.867.867,0,0,1,0,8.045V6.381a.867.867,0,0,1,.9-.833h.9a.867.867,0,0,1,.9.833V8.045A.867.867,0,0,1,1.792,8.877Z" transform="translate(245.783 3.511)"/><path d="M-13.316,0h1.752V-8.455h-1.758l-2.186,1.518v1.57l2.156-1.465h.035Zm5.941-3.721h.967c1.025,0,1.629.457,1.623,1.277,0,.715-.609,1.207-1.494,1.207-.932,0-1.541-.469-1.6-1.16H-9.565C-9.489-.844-8.189.188-6.278.188c1.963,0,3.293-1.02,3.293-2.555A2.026,2.026,0,0,0-5.06-4.389v-.035A2.018,2.018,0,0,0-3.3-6.4C-3.3-7.758-4.5-8.643-6.29-8.643c-1.77,0-3,.99-3.088,2.537h1.623A1.308,1.308,0,0,1-6.29-7.283c.844,0,1.318.439,1.318,1.131S-5.546-4.98-6.431-4.98h-.943ZM-.536-5.379a.943.943,0,0,0,.943-.943.939.939,0,0,0-.943-.943.935.935,0,0,0-.943.943A.939.939,0,0,0-.536-5.379Zm0,4.184a.943.943,0,0,0,.943-.943.939.939,0,0,0-.943-.943.935.935,0,0,0-.943.943A.939.939,0,0,0-.536-1.2ZM3.993-3.721H4.96c1.025,0,1.629.457,1.623,1.277,0,.715-.609,1.207-1.494,1.207-.932,0-1.541-.469-1.6-1.16H1.8C1.878-.844,3.179.188,5.089.188c1.963,0,3.293-1.02,3.293-2.555A2.026,2.026,0,0,0,6.308-4.389v-.035A2.018,2.018,0,0,0,8.071-6.4c0-1.354-1.207-2.238-2.994-2.238-1.77,0-3,.99-3.088,2.537H3.612A1.308,1.308,0,0,1,5.077-7.283c.844,0,1.318.439,1.318,1.131S5.821-4.98,4.937-4.98H3.993ZM10.2,0h1.857l3.527-7.031V-8.455H9.536v1.406h4.3v.035Z" transform="translate(15.753 11.094)"/></g><g transform="translate(-48.247 -115.906)"><circle cx="3" cy="3" r="3" transform="translate(172 616)"/><circle cx="3" cy="3" r="3" transform="translate(191 616)" fill="#bcbcbc"/><circle cx="3" cy="3" r="3" transform="translate(210 616)" fill="#bcbcbc"/><circle cx="3" cy="3" r="3" transform="translate(229 616)" fill="#bcbcbc"/></g><g transform="translate(50.544 213.094)"><path d="M91.967,116.754c50.792,0,91.967-5.989,91.967-13.377S142.759,90,91.967,90,0,95.989,0,103.377,41.175,116.754,91.967,116.754Z" transform="translate(0 -14.754)"/><g transform="translate(94.067 17.557)" clip-path="url(#p)"><path d="M170.1,57.927h-7.47l-1.073-9.463a3.13,3.13,0,0,0-.671-1.589l-1.808,6.856S157.6,63.3,155.218,63.3s-3.936-10.2-3.936-10.2V45.6h-5.666v7.5s-1.556,10.2-3.935,10.2-3.859-9.567-3.859-9.567l-1.808-6.856a3.135,3.135,0,0,0-.67,1.588l-1.073,9.463H126.8c2.942,1.922,6.565,8,6.186,11.349l-2.123,18.733a2.525,2.525,0,0,0,2.568,2.862h30.037a2.525,2.525,0,0,0,2.568-2.862l-2.124-18.752C163.548,65.9,167.163,59.845,170.1,57.927Z" transform="translate(-114.853 -25.033)" fill="#6cf5c5"/><path d="M162.686,26.343a16.052,16.052,0,0,0-4.851.746,16.043,16.043,0,0,0-22.96,0,15.92,15.92,0,1,0,6.63,26.264,16.138,16.138,0,0,0,9.7,0,15.96,15.96,0,1,0,11.48-27.01Z" transform="translate(-112.76 -21.205)" fill="#46c79c"/><path d="M140.61,80.334a1.979,1.979,0,1,0-1.987-1.979A1.984,1.984,0,0,0,140.61,80.334Z" transform="translate(-116.792 -30.078)" fill="#3f4963"/><path d="M142.5,85.851h-4.253a1.047,1.047,0,1,1,0-2.095H142.5a1.047,1.047,0,1,1,0,2.095Z" transform="translate(-116.558 -31.288)" fill="#ff6376"/><path d="M164,80.334a1.979,1.979,0,1,0-1.987-1.979A1.984,1.984,0,0,0,164,80.334Z" transform="translate(-120.626 -30.078)" fill="#3f4963"/><path d="M165.892,85.851h-4.253a1.047,1.047,0,1,1,0-2.095h4.253a1.047,1.047,0,1,1,0,2.095Z" transform="translate(-120.392 -31.288)" fill="#ff6376"/><path d="M149.737,83.452a3.025,3.025,0,0,1-3.028-3.014,1.052,1.052,0,0,1,2.1,0,.924.924,0,0,0,1.848,0,1.052,1.052,0,0,1,2.1,0A3.025,3.025,0,0,1,149.737,83.452Z" transform="translate(-118.117 -30.572)" fill="#3f4963"/><path d="M154.464,83.452a3.025,3.025,0,0,1-3.028-3.014,1.052,1.052,0,0,1,2.1,0,.924.924,0,0,0,1.848,0,1.052,1.052,0,0,1,2.1,0A3.025,3.025,0,0,1,154.464,83.452Z" transform="translate(-118.892 -30.572)" fill="#3f4963"/><path d="M132.42,45.252a1.979,1.979,0,1,0-1.987-1.979A1.983,1.983,0,0,0,132.42,45.252Z" transform="translate(-115.449 -24.327)" fill="#28785c"/><path d="M141.75,35.447a1.979,1.979,0,1,0-1.988-1.979A1.983,1.983,0,0,0,141.75,35.447Z" transform="translate(-116.978 -22.72)" fill="#28785c"/><path d="M121.9,42.547a1.979,1.979,0,1,0-1.988-1.979A1.983,1.983,0,0,0,121.9,42.547Z" transform="translate(-113.724 -23.884)" fill="#28785c"/><path d="M155.088,30.515a1.979,1.979,0,1,0-1.987-1.979A1.984,1.984,0,0,0,155.088,30.515Z" transform="translate(-119.165 -21.911)" fill="#28785c"/><path d="M151.9,42.547a1.979,1.979,0,1,0-1.988-1.979A1.983,1.983,0,0,0,151.9,42.547Z" transform="translate(-118.642 -23.884)" fill="#28785c"/><path d="M148.856,53.255a1.979,1.979,0,1,0-1.987-1.979A1.983,1.983,0,0,0,148.856,53.255Z" transform="translate(-118.143 -25.639)" fill="#28785c"/><path d="M161.456,47.619a1.979,1.979,0,1,0-1.987-1.979A1.983,1.983,0,0,0,161.456,47.619Z" transform="translate(-120.209 -24.715)" fill="#28785c"/><path d="M174.889,60.356a1.979,1.979,0,1,0-1.988-1.979A1.983,1.983,0,0,0,174.889,60.356Z" transform="translate(-122.411 -26.803)" fill="#28785c"/><path d="M139.372,56.053a1.979,1.979,0,1,0-1.987-1.979A1.983,1.983,0,0,0,139.372,56.053Z" transform="translate(-116.589 -26.098)" fill="#28785c"/><path d="M184.047,46.926a1.979,1.979,0,1,0-1.987-1.979A1.983,1.983,0,0,0,184.047,46.926Z" transform="translate(-123.912 -24.601)" fill="#28785c"/><path d="M173.727,45.252a1.979,1.979,0,1,0-1.987-1.979A1.984,1.984,0,0,0,173.727,45.252Z" transform="translate(-122.221 -24.327)" fill="#28785c"/><path d="M179.293,53.255a1.979,1.979,0,1,0-1.987-1.979A1.984,1.984,0,0,0,179.293,53.255Z" transform="translate(-123.133 -25.639)" fill="#28785c"/><path d="M130.042,58.826a1.979,1.979,0,1,0-1.987-1.979A1.984,1.984,0,0,0,130.042,58.826Z" transform="translate(-115.059 -26.552)" fill="#28785c"/><path d="M141.75,46.156a1.979,1.979,0,1,0-1.988-1.979A1.983,1.983,0,0,0,141.75,46.156Z" transform="translate(-116.978 -24.475)" fill="#28785c"/><path d="M130.042,36.4a1.979,1.979,0,1,0-1.987-1.979A1.984,1.984,0,0,0,130.042,36.4Z" transform="translate(-115.059 -22.876)" fill="#28785c"/><path d="M159.409,37.813a1.979,1.979,0,1,0-1.987-1.979A1.983,1.983,0,0,0,159.409,37.813Z" transform="translate(-119.873 -23.107)" fill="#28785c"/><path d="M173.727,35.447a1.979,1.979,0,1,0-1.987-1.979A1.984,1.984,0,0,0,173.727,35.447Z" transform="translate(-122.221 -22.72)" fill="#28785c"/><path d="M166.542,40.644a1.979,1.979,0,1,0-1.987-1.979A1.984,1.984,0,0,0,166.542,40.644Z" transform="translate(-121.043 -23.572)" fill="#28785c"/><path d="M180.271,40.18a1.979,1.979,0,1,0-1.987-1.979A1.984,1.984,0,0,0,180.271,40.18Z" transform="translate(-123.293 -23.495)" fill="#28785c"/><path d="M167.462,55.622a1.979,1.979,0,1,0-1.988-1.979A1.983,1.983,0,0,0,167.462,55.622Z" transform="translate(-121.193 -26.027)" fill="#28785c"/><path d="M123.1,51.881a1.979,1.979,0,1,0-1.988-1.979A1.983,1.983,0,0,0,123.1,51.881Z" transform="translate(-113.922 -25.414)" fill="#28785c"/><path d="M138.485,89.621a1.052,1.052,0,0,0-1.176.907l-.39,3.059h2.121l.356-2.8A1.048,1.048,0,0,0,138.485,89.621Zm-.132-18.443a1.05,1.05,0,0,0,.987-1.41L138.166,66.6a1.052,1.052,0,0,0-1.974.725l1.173,3.166A1.053,1.053,0,0,0,138.353,71.178Zm5.508,15.65a1.052,1.052,0,0,0-1.176.907l-.745,5.852h2.121L144.772,88A1.048,1.048,0,0,0,143.861,86.828Zm15.176,0A1.049,1.049,0,0,0,158.125,88l.711,5.589h2.122l-.746-5.852A1.049,1.049,0,0,0,159.037,86.828Zm3.342-21.564a1.055,1.055,0,0,0-1.474.2l-2.574,3.38a1.05,1.05,0,0,0,1.676,1.265l2.575-3.38A1.044,1.044,0,0,0,162.379,65.264Zm-14.421.486a1.049,1.049,0,0,0-1.036,1.063l.038,2.448a1.05,1.05,0,0,0,1.052,1.031h.017a1.049,1.049,0,0,0,1.036-1.063l-.038-2.448A1.052,1.052,0,0,0,147.957,65.75Zm3.331-3.578a1.05,1.05,0,0,0-1.053,1.047v3.746a1.052,1.052,0,0,0,2.1,0V63.219A1.049,1.049,0,0,0,151.288,62.172Z" transform="translate(-116.382 -27.749)" fill="#46c79c"/><path d="M150.1,69.819a1.049,1.049,0,0,0-1.052,1.047.924.924,0,0,1-1.848,0,1.052,1.052,0,0,0-2.1,0,.924.924,0,0,1-1.848,0,1.052,1.052,0,0,0-2.1,0,3.027,3.027,0,0,0,5,2.279,3.027,3.027,0,0,0,5-2.279A1.049,1.049,0,0,0,150.1,69.819ZM136.372,67.3a1.979,1.979,0,1,0,1.988,1.979A1.983,1.983,0,0,0,136.372,67.3Zm43.156-25.237a17.068,17.068,0,0,0-21.6-16.358,17.1,17.1,0,0,0-23.558,0,16.981,16.981,0,1,0-6.844,33.175c1.456,2.364,2.279,4.779,2.113,6.248l-2.122,18.733a3.575,3.575,0,0,0,3.614,4.026h30.037a3.575,3.575,0,0,0,3.614-4.027l-2.124-18.746c-.159-1.47.665-3.88,2.114-6.235A17.022,17.022,0,0,0,179.528,42.061ZM162.691,84.094a1.516,1.516,0,0,1-.36,1.206,1.533,1.533,0,0,1-1.163.491H131.131a1.533,1.533,0,0,1-1.163-.491,1.517,1.517,0,0,1-.359-1.206l2.123-18.733a11.83,11.83,0,0,0-1.7-6.331,17.064,17.064,0,0,0,6.516-1.365c.6,1.337,1.482,2.649,2.828,2.649,1.548,0,2.738-1.747,3.81-5.628a17.165,17.165,0,0,0,5.919,0c1.071,3.882,2.261,5.628,3.809,5.628,1.346,0,2.231-1.312,2.829-2.649a17.057,17.057,0,0,0,6.515,1.365,11.886,11.886,0,0,0-1.7,6.313ZM138.433,56.714a17.046,17.046,0,0,0,2.492-1.779c-.772,2.507-1.38,3.126-1.554,3.258A3.563,3.563,0,0,1,138.433,56.714Zm12.94-1.779a17.019,17.019,0,0,0,2.492,1.779,3.56,3.56,0,0,1-.938,1.48C152.752,58.061,152.145,57.443,151.373,54.936Zm11.107,2a14.857,14.857,0,0,1-10.725-4.518,1.056,1.056,0,0,0-1.074-.269,15.084,15.084,0,0,1-9.063,0,1.054,1.054,0,0,0-1.074.269,14.883,14.883,0,1,1-6.194-24.537,1.056,1.056,0,0,0,1.074-.269,14.988,14.988,0,0,1,21.45,0,1.056,1.056,0,0,0,1.074.269,14.889,14.889,0,1,1,4.531,29.055ZM155.927,67.3a1.979,1.979,0,1,0,1.987,1.979A1.983,1.983,0,0,0,155.927,67.3Z" transform="translate(-112.553 -21)"/></g><path d="M82.592,16.517c0,6.323-4.257,11.76-6.468,14.157-.957,1.037-1.65,1.028-2.6,0-2.211-2.4-6.469-7.834-6.468-14.157S71.313,4.757,73.524,2.36c.949-1.029,1.643-1.037,2.6,0C78.334,4.757,82.591,10.194,82.592,16.517Z" transform="translate(-10.993 -0.26)" fill="#46c79c"/><path d="M85.047,15.369C80.555,19.84,79.7,26.68,79.564,29.932c-.06,1.407.437,1.889,1.838,1.829,3.267-.139,10.139-.986,14.63-5.458s5.344-11.312,5.483-14.563c.06-1.4-.425-1.89-1.838-1.83C96.41,10.05,89.537,10.9,85.047,15.369Z" transform="translate(-13.043 -1.624)" fill="#46c79c"/><path d="M63.342,15.369c4.491,4.471,5.343,11.312,5.482,14.563.06,1.407-.437,1.889-1.838,1.829-3.267-.139-10.139-.986-14.63-5.458s-5.343-11.312-5.482-14.563c-.06-1.4.425-1.89,1.838-1.83C51.978,10.05,58.851,10.9,63.342,15.369Z" transform="translate(-7.683 -1.624)" fill="#46c79c"/><path d="M86.132,7.537c-.435-1.186-1.012-1.432-2.171-.9-2.68,1.242-8.126,4.317-10.323,9.6-.021.05-.039.1-.059.151-.02-.05-.038-.1-.059-.151-2.2-5.281-7.643-8.356-10.323-9.6-1.159-.536-1.736-.29-2.171.9-1.014,2.764-2.68,8.771-.482,14.053s7.643,8.356,10.323,9.6a9.41,9.41,0,0,0,5.425,0c2.681-1.241,8.126-4.316,10.323-9.6S87.146,10.3,86.132,7.537Z" transform="translate(-9.748 -1.044)" fill="#6cf5c5"/><path d="M93.4,67.035a21.214,21.214,0,0,1-42.427,0V49.41a21.214,21.214,0,0,1,42.427,0V67.035Z" transform="translate(-8.356 -4.638)" fill="#fc0"/><path d="M61.873,58.8a2.37,2.37,0,1,0-2.381-2.37A2.375,2.375,0,0,0,61.873,58.8Z" transform="translate(-9.753 -8.863)" fill="#3f4963"/><path d="M64.126,65.47H59.032a1.325,1.325,0,1,1,0-2.651h5.094a1.325,1.325,0,1,1,0,2.651Z" transform="translate(-9.459 -10.298)" fill="#ff6376"/><path d="M89.888,58.8a2.37,2.37,0,1,0-2.381-2.37A2.375,2.375,0,0,0,89.888,58.8Z" transform="translate(-14.345 -8.863)" fill="#3f4963"/><path d="M92.141,65.47H87.047a1.325,1.325,0,1,1,0-2.651h5.094a1.325,1.325,0,1,1,0,2.651Z" transform="translate(-14.052 -10.298)" fill="#ff6376"/><path d="M72.791,62.6a3.694,3.694,0,0,1-3.7-3.681,1.332,1.332,0,0,1,2.663,0,1.035,1.035,0,0,0,2.07,0,1.331,1.331,0,0,1,2.663,0A3.694,3.694,0,0,1,72.791,62.6Z" transform="translate(-11.327 -9.441)" fill="#3f4963"/><path d="M78.453,62.6a3.694,3.694,0,0,1-3.7-3.681,1.331,1.331,0,0,1,2.663,0,1.035,1.035,0,0,0,2.07,0,1.332,1.332,0,0,1,2.663,0A3.694,3.694,0,0,1,78.453,62.6Z" transform="translate(-12.255 -9.441)" fill="#3f4963"/><path d="M78.7,49a1.331,1.331,0,0,1-.941-.388l-2.313-2.3-2.313,2.3a1.336,1.336,0,0,1-1.883,0,1.321,1.321,0,0,1,0-1.875l3.255-3.24a1.336,1.336,0,0,1,1.883,0l3.255,3.24A1.326,1.326,0,0,1,78.7,49Z" transform="translate(-11.617 -7.066)" fill="#dfa800"/><path d="M63.849,49a1.331,1.331,0,0,1-.941-.388l-2.313-2.3-2.313,2.3a1.336,1.336,0,0,1-1.883,0,1.321,1.321,0,0,1,0-1.874l3.255-3.24a1.336,1.336,0,0,1,1.883,0l3.254,3.24A1.326,1.326,0,0,1,63.849,49Z" transform="translate(-9.182 -7.066)" fill="#dfa800"/><path d="M71.276,40.548a1.331,1.331,0,0,1-.941-.388l-2.313-2.3-2.313,2.3a1.336,1.336,0,0,1-1.883,0,1.321,1.321,0,0,1,0-1.874l3.255-3.24a1.336,1.336,0,0,1,1.883,0l3.255,3.24a1.325,1.325,0,0,1-.942,2.263Z" transform="translate(-10.399 -5.682)" fill="#dfa800"/><path d="M93.556,49a1.331,1.331,0,0,1-.941-.388L90.3,46.3l-2.313,2.3a1.336,1.336,0,0,1-1.883,0,1.321,1.321,0,0,1,0-1.875l3.255-3.24a1.336,1.336,0,0,1,1.883,0l3.255,3.24A1.326,1.326,0,0,1,93.556,49Z" transform="translate(-14.052 -7.066)" fill="#dfa800"/><path d="M86.13,40.548a1.331,1.331,0,0,1-.941-.388l-2.313-2.3-2.313,2.3a1.336,1.336,0,0,1-1.883,0,1.321,1.321,0,0,1,0-1.875l3.255-3.24a1.336,1.336,0,0,1,1.883,0l3.255,3.24a1.325,1.325,0,0,1-.942,2.263Z" transform="translate(-12.834 -5.682)" fill="#dfa800"/><path d="M78.7,76.844a1.331,1.331,0,0,1-.941-.388l-2.313-2.3-2.313,2.3a1.336,1.336,0,0,1-1.883,0,1.321,1.321,0,0,1,0-1.875l3.255-3.24a1.336,1.336,0,0,1,1.883,0l3.255,3.24a1.325,1.325,0,0,1-.942,2.263Z" transform="translate(-11.617 -11.632)" fill="#dfa800"/><path d="M78.7,92.384A1.331,1.331,0,0,1,77.761,92l-2.313-2.3L73.135,92a1.336,1.336,0,0,1-1.883,0,1.321,1.321,0,0,1,0-1.874l3.255-3.24a1.336,1.336,0,0,1,1.883,0l3.255,3.24a1.325,1.325,0,0,1-.942,2.263Z" transform="translate(-11.617 -14.179)" fill="#dfa800"/><path d="M63.849,76.844a1.331,1.331,0,0,1-.941-.388l-2.313-2.3-2.313,2.3a1.336,1.336,0,0,1-1.883,0,1.321,1.321,0,0,1,0-1.875l3.255-3.24a1.336,1.336,0,0,1,1.883,0l3.254,3.24a1.326,1.326,0,0,1-.941,2.263Z" transform="translate(-9.182 -11.632)" fill="#dfa800"/><path d="M86.13,84.614a1.331,1.331,0,0,1-.941-.388l-2.313-2.3-2.313,2.3a1.336,1.336,0,0,1-1.883,0,1.321,1.321,0,0,1,0-1.875l3.255-3.24a1.336,1.336,0,0,1,1.883,0l3.255,3.24a1.325,1.325,0,0,1-.942,2.263Z" transform="translate(-12.834 -12.905)" fill="#dfa800"/><path d="M93.556,76.844a1.331,1.331,0,0,1-.941-.388l-2.313-2.3-2.313,2.3a1.336,1.336,0,0,1-1.883,0,1.321,1.321,0,0,1,0-1.875l3.255-3.24a1.336,1.336,0,0,1,1.883,0l3.255,3.24a1.325,1.325,0,0,1-.942,2.263Z" transform="translate(-14.052 -11.632)" fill="#dfa800"/><path d="M71.276,84.614a1.331,1.331,0,0,1-.941-.388l-2.313-2.3-2.313,2.3a1.336,1.336,0,0,1-1.883,0,1.321,1.321,0,0,1,0-1.875l3.255-3.24a1.336,1.336,0,0,1,1.883,0l3.255,3.24a1.325,1.325,0,0,1-.941,2.263Z" transform="translate(-10.399 -12.905)" fill="#dfa800"/><path d="M59.472,45.2a2.37,2.37,0,1,0,2.381,2.37A2.376,2.376,0,0,0,59.472,45.2Zm16.445,2.948a1.328,1.328,0,0,0-1.332,1.325,1.035,1.035,0,0,1-2.07,0,1.332,1.332,0,0,0-2.663,0,1.035,1.035,0,0,1-2.07,0,1.332,1.332,0,0,0-2.663,0A3.7,3.7,0,0,0,71.183,52.3a3.7,3.7,0,0,0,6.065-2.826A1.329,1.329,0,0,0,75.916,48.149ZM97.272,10.174a3.15,3.15,0,0,0-.757-2.456,3.187,3.187,0,0,0-2.468-.756,29.737,29.737,0,0,0-8.283,1.51c-.213-.782-.468-1.593-.777-2.434a2.977,2.977,0,0,0-1.557-1.865A3,3,0,0,0,81,4.395a28.647,28.647,0,0,0-3.663,2.02A30.7,30.7,0,0,0,73.463,1.2,3.181,3.181,0,0,0,71.182,0h0A3.18,3.18,0,0,0,68.9,1.2a30.7,30.7,0,0,0-3.878,5.211,28.732,28.732,0,0,0-3.663-2.02,3,3,0,0,0-2.427-.221,2.976,2.976,0,0,0-1.556,1.864c-.3.829-.556,1.628-.767,2.4a29.812,29.812,0,0,0-8.175-1.474,3.183,3.183,0,0,0-2.468.756,3.15,3.15,0,0,0-.756,2.455c.373,8.724,3.839,13.421,5.871,15.443a17.327,17.327,0,0,0,4.349,3.115,22.324,22.324,0,0,0-6.794,16.04V62.4a22.545,22.545,0,0,0,45.09,0V44.772a22.327,22.327,0,0,0-6.753-16A17.362,17.362,0,0,0,91.4,25.618C93.433,23.594,96.9,18.9,97.272,10.174ZM70.864,3a2.465,2.465,0,0,1,.319-.3A2.487,2.487,0,0,1,71.5,3a27.861,27.861,0,0,1,3.684,5,19.147,19.147,0,0,0-4,4.459A19.15,19.15,0,0,0,67.18,8,27.817,27.817,0,0,1,70.864,3ZM59.88,6.946a2.584,2.584,0,0,1,.105-.252,2.606,2.606,0,0,1,.253.1c2.216,1.027,7.593,3.949,9.655,8.9l.053.135a1.334,1.334,0,0,0,2.474,0l.052-.134c2.061-4.954,7.439-7.877,9.654-8.9a2.58,2.58,0,0,1,.254-.1c.029.06.065.142.106.252.838,2.285,2.565,8.134.5,13.09a13.574,13.574,0,0,1-2.8,4.162,22.617,22.617,0,0,0-18.009,0,13.579,13.579,0,0,1-2.8-4.162C57.315,15.082,59.042,9.232,59.88,6.946Zm-6.914,16.8c-4.25-4.231-4.978-10.977-5.094-13.682a2.433,2.433,0,0,1,.012-.436,2.506,2.506,0,0,1,.438-.013,27.456,27.456,0,0,1,7.714,1.433,18.2,18.2,0,0,0,.88,10.007,15.856,15.856,0,0,0,2.8,4.4,22.639,22.639,0,0,0-2.082,1.388A15.232,15.232,0,0,1,52.966,23.743Zm38.1,21.029V62.4a19.882,19.882,0,0,1-39.764,0V44.772a19.882,19.882,0,0,1,39.764,0Zm-6.3-17.9a22.674,22.674,0,0,0-2.124-1.42,15.858,15.858,0,0,0,2.8-4.4,18.179,18.179,0,0,0,.887-9.968,27.362,27.362,0,0,1,7.823-1.473,2.506,2.506,0,0,1,.44.013,2.475,2.475,0,0,1,.012.437c-.115,2.7-.843,9.451-5.094,13.682A15.288,15.288,0,0,1,84.768,26.874ZM82.894,45.2a2.37,2.37,0,1,0,2.381,2.37A2.376,2.376,0,0,0,82.894,45.2Z" transform="translate(-7.411)"/><g transform="translate(79.789 53.508)" clip-path="url(#q)"><path d="M112.51,68.909a7.184,7.184,0,0,1,1.751,4.651c.019.449-.14.6-.587.584A7.257,7.257,0,0,1,109,72.4a7.189,7.189,0,0,1-1.751-4.651c-.018-.446.136-.6.587-.584A7.259,7.259,0,0,1,112.51,68.909Z" transform="translate(-97.371 -64.519)" fill="#46c79c"/><path d="M115.241,74.721a1.447,1.447,0,0,1-1.451-1.444v-6.4a1.451,1.451,0,0,1,2.9,0v6.4A1.447,1.447,0,0,1,115.241,74.721Z" transform="translate(-98.443 -64.236)" fill="#866539"/><path d="M117.711,66.8a8.954,8.954,0,0,0-2.183,5.8c-.024.56.174.752.732.728a9.047,9.047,0,0,0,5.826-2.173,8.959,8.959,0,0,0,2.183-5.8c.023-.555-.169-.752-.732-.728A9.048,9.048,0,0,0,117.711,66.8Z" transform="translate(-98.728 -64.102)" fill="#6cf5c5"/><path d="M98.269,79.539a7.491,7.491,0,0,1,7.508-7.474c2.741,0,5,1.421,6.919,1.421s4.178-1.421,6.918-1.421h0a7.491,7.491,0,0,1,7.509,7.474c0,4.618-2.32,18.7-10.289,18.7h0c-2.068,0-2.646-1.016-4.137-1.016s-2.069,1.016-4.138,1.016C100.589,98.243,98.269,84.157,98.269,79.539Z" transform="translate(-95.899 -65.322)" fill="#ff6376"/><path d="M106.242,83.116a.98.98,0,1,0-.985-.98A.983.983,0,0,0,106.242,83.116Z" transform="translate(-97.044 -66.812)" fill="#3f4963"/><path d="M124.422,83.116a.98.98,0,1,0-.984-.98A.982.982,0,0,0,124.422,83.116Z" transform="translate(-100.025 -66.812)" fill="#3f4963"/><path d="M107.179,86.2h-2.108a.521.521,0,1,1,0-1.042h2.108a.521.521,0,1,1,0,1.042Z" transform="translate(-96.928 -67.468)" fill="#ff9596"/><path d="M125.36,86.2h-2.107a.521.521,0,1,1,0-1.042h2.107a.521.521,0,1,1,0,1.042Z" transform="translate(-99.908 -67.468)" fill="#ff9596"/><path d="M113.706,85.147a1.755,1.755,0,0,1-1.757-1.748.523.523,0,0,1,1.047,0,.71.71,0,0,0,1.42,0,.523.523,0,0,1,1.047,0A1.754,1.754,0,0,1,113.706,85.147Z" transform="translate(-98.141 -67.095)" fill="#3f4963"/><path d="M116.656,85.147A1.755,1.755,0,0,1,114.9,83.4a.523.523,0,0,1,1.047,0,.71.71,0,0,0,1.42,0,.523.523,0,0,1,1.047,0A1.754,1.754,0,0,1,116.656,85.147Z" transform="translate(-98.625 -67.095)" fill="#3f4963"/><path d="M104.994,78.343a.98.98,0,1,0,.985.98A.982.982,0,0,0,104.994,78.343Zm15.442-8.068a10.444,10.444,0,0,0,1.424-5A1.089,1.089,0,0,0,120.582,64a9.133,9.133,0,0,0-6.061,2.218,1.975,1.975,0,0,0-3.9.426v.805a7.969,7.969,0,0,0-4.334-1.324,1.139,1.139,0,0,0-.862.27,1.127,1.127,0,0,0-.27.857,9.418,9.418,0,0,0,.6,2.969h-.083a8.023,8.023,0,0,0-8.032,7.995,35.243,35.243,0,0,0,2.191,11.27c2,5.2,4.982,7.955,8.622,7.955a5.959,5.959,0,0,0,2.639-.614,3,3,0,0,1,3,0,5.951,5.951,0,0,0,2.638.614h0c3.639,0,6.621-2.751,8.622-7.955a35.261,35.261,0,0,0,2.19-11.27A8.02,8.02,0,0,0,120.436,70.275Zm-5.286-3.211c1.694-1.686,4.394-1.975,5.477-2.021a.974.974,0,0,1,.181.006.947.947,0,0,1,.005.18,8.46,8.46,0,0,1-1.625,5,14.821,14.821,0,0,0-3.9.822,14.34,14.34,0,0,1-2.088.545A7.809,7.809,0,0,1,115.149,67.065Zm-3.483-.419a.927.927,0,0,1,1.854,0v.789a9.95,9.95,0,0,0-1.38,4.18c-.154-.018-.313-.044-.474-.076Zm-5.425.522a6.365,6.365,0,0,1,4.324,1.591l.054.056v2.456c-.235-.07-.475-.144-.718-.221a18.32,18.32,0,0,0-2.959-.737,7.937,7.937,0,0,1-.743-3.1c0-.016,0-.03,0-.042Zm18.134,21.946a15.429,15.429,0,0,1-3.052,5.174,6.252,6.252,0,0,1-4.592,2.112h0a5,5,0,0,1-2.219-.526,4,4,0,0,0-3.837,0,5,5,0,0,1-2.219.526,6.252,6.252,0,0,1-4.592-2.112,15.413,15.413,0,0,1-3.052-5.174,34.142,34.142,0,0,1-2.122-10.9,6.977,6.977,0,0,1,6.984-6.953,12.955,12.955,0,0,1,3.914.781,10.493,10.493,0,0,0,3.006.64,10.488,10.488,0,0,0,3-.64,12.953,12.953,0,0,1,3.914-.781,6.977,6.977,0,0,1,6.985,6.953A34.179,34.179,0,0,1,124.375,89.115Zm-9.315-9.332a.522.522,0,0,0-.523.521.71.71,0,0,1-1.42,0,.523.523,0,0,0-1.047,0,.71.71,0,0,1-1.42,0,.523.523,0,0,0-1.047,0,1.757,1.757,0,0,0,2.99,1.244,1.757,1.757,0,0,0,2.99-1.244A.522.522,0,0,0,115.06,79.783Zm5.134-1.439a.98.98,0,1,0,.985.98A.982.982,0,0,0,120.194,78.343Z" transform="translate(-95.796 -64)"/></g><path d="M34.627,73.237a1.484,1.484,0,0,0,.213-.015,1.451,1.451,0,0,0,1.23-1.644l-1.846-12.54a1.456,1.456,0,0,0-2.882.42L33.188,72A1.454,1.454,0,0,0,34.627,73.237Z" transform="translate(-5.135 -9.475)" fill="#46c79c"/><path d="M24.875,74.409a.994.994,0,0,1,1.012-1.15H51.136a.994.994,0,0,1,1.012,1.15l-3.464,26.124a1.367,1.367,0,0,1-1.317,1.15H29.656a1.368,1.368,0,0,1-1.317-1.15Z" transform="translate(-4.076 -12.01)" fill="#c3ddf7"/><path d="M24.067,70.707h2.655A2.712,2.712,0,0,1,29.439,68h17.5a2.712,2.712,0,0,1,2.718,2.706h2.655a1.166,1.166,0,0,1,1.165,1.16v3.188a1.166,1.166,0,0,1-1.165,1.16H24.067a1.166,1.166,0,0,1-1.165-1.16V71.866A1.166,1.166,0,0,1,24.067,70.707Z" transform="translate(-3.754 -11.148)" fill="#3f4963"/><path d="M42.262,84.87A1.873,1.873,0,0,0,44.137,83,.67.67,0,0,0,42.8,83a.536.536,0,0,1-1.071,0,.67.67,0,0,0-1.339,0A1.873,1.873,0,0,0,42.262,84.87Z" transform="translate(-6.621 -13.498)" fill="#3f4963"/><path d="M39.378,84.87A1.873,1.873,0,0,0,41.253,83a.67.67,0,0,0-1.339,0,.536.536,0,0,1-1.071,0A.67.67,0,0,0,37.5,83,1.873,1.873,0,0,0,39.378,84.87Z" transform="translate(-6.148 -13.498)" fill="#3f4963"/><path d="M32.37,86.334h2.594a.667.667,0,1,0,0-1.333H32.37a.667.667,0,1,0,0,1.333Z" transform="translate(-5.197 -13.934)" fill="#ff9596"/><path d="M32.471,82.6a.668.668,0,0,0,.67-.667.543.543,0,0,1,1.086,0,.67.67,0,0,0,1.339,0,1.882,1.882,0,0,0-3.764,0A.668.668,0,0,0,32.471,82.6Z" transform="translate(-5.213 -13.124)" fill="#3f4963"/><path d="M46.638,86.334h2.594a.667.667,0,1,0,0-1.333H46.638a.667.667,0,1,0,0,1.333Z" transform="translate(-7.536 -13.934)" fill="#ff9596"/><path d="M46.74,82.6a.668.668,0,0,0,.67-.667.543.543,0,0,1,1.086,0,.67.67,0,0,0,1.339,0,1.882,1.882,0,0,0-3.764,0A.668.668,0,0,0,46.74,82.6Z" transform="translate(-7.552 -13.124)" fill="#3f4963"/><path d="M50.879,88.87a.762.762,0,0,1,.776.881L50.419,99.07a1.048,1.048,0,0,1-1.01.881H27.855a1.048,1.048,0,0,1-1.01-.881L25.61,89.751a.762.762,0,0,1,.776-.881Z" transform="translate(-4.197 -14.569)" fill="#866539"/><path d="M40.3,99.133a4.522,4.522,0,1,1,4.543-4.522A4.532,4.532,0,0,1,40.3,99.133Z" transform="translate(-5.861 -14.769)" fill="#fff"/><path d="M40.2,92.733a.6.6,0,0,1,.6.6.6.6,0,0,1,.6-.6c.513,0,1.361,1.156,1.361,2.533s-.6,1.911-1.361,1.911a.6.6,0,0,1-.6-.6.6.6,0,0,1-.6.6c-.759,0-1.361-.533-1.361-1.911S39.687,92.733,40.2,92.733Z" transform="translate(-6.367 -15.202)" fill="#866539"/><path d="M33.306,78.818a.668.668,0,0,1-.67-.667.543.543,0,0,0-1.086,0,.67.67,0,0,1-1.339,0,1.882,1.882,0,0,1,3.764,0A.668.668,0,0,1,33.306,78.818ZM23.935,68.236h2.052a3.389,3.389,0,0,1,3.321-2.706h.758l-.9-6.108a2.126,2.126,0,0,1,4.207-.614l.989,6.721H46.809a3.39,3.39,0,0,1,3.321,2.706h2.052a1.833,1.833,0,0,1,1.835,1.826v3.188a1.832,1.832,0,0,1-1.835,1.826h-.253l-1.062,8.011a1.418,1.418,0,0,1,.539.377,1.447,1.447,0,0,1,.34,1.149l-1.236,9.318a1.715,1.715,0,0,1-1.268,1.408l-.347,2.614a2.026,2.026,0,0,1-1.981,1.729H29.2a2.026,2.026,0,0,1-1.981-1.729l-.347-2.615a1.714,1.714,0,0,1-1.267-1.407l-1.236-9.318a1.448,1.448,0,0,1,.34-1.149,1.418,1.418,0,0,1,.538-.376l-1.062-8.011h-.253A1.832,1.832,0,0,1,22.1,73.251V70.063A1.833,1.833,0,0,1,23.935,68.236ZM32.048,59a.786.786,0,0,0-1.556.227l.928,6.3h1.59Zm14.76,7.861h-17.5a2.051,2.051,0,0,0-1.935,1.372H48.744A2.051,2.051,0,0,0,46.809,66.864Zm2.027,27.2a.383.383,0,0,0,.346-.3l1.235-9.318a.122.122,0,0,0-.019-.1.124.124,0,0,0-.093-.032H39.848a5.181,5.181,0,0,1,0,9.747ZM38.059,85.33a3.855,3.855,0,1,0,3.873,3.855A3.869,3.869,0,0,0,38.059,85.33Zm-9.509,12.45a.705.705,0,0,0,.653.569H46.914a.7.7,0,0,0,.653-.569l.317-2.388H28.233ZM25.7,84.439l1.236,9.319a.384.384,0,0,0,.346.3H36.27a5.181,5.181,0,0,1,0-9.748H25.812a.124.124,0,0,0-.093.032A.123.123,0,0,0,25.7,84.439Zm.887-1.461H49.53l1.048-7.9H25.539ZM23.44,73.251a.494.494,0,0,0,.5.493H52.181a.5.5,0,0,0,.5-.493V70.063a.5.5,0,0,0-.5-.493H23.935a.5.5,0,0,0-.5.493Zm15.824,7.465a1.87,1.87,0,0,1-1.205-.439,1.875,1.875,0,0,1-3.081-1.428.67.67,0,0,1,1.339,0,.536.536,0,0,0,1.071,0,.67.67,0,0,1,1.339,0,.536.536,0,0,0,1.072,0,.67.67,0,0,1,1.339,0A1.872,1.872,0,0,1,39.264,80.716Zm5.972-1.9a.668.668,0,0,1-.67-.667.543.543,0,0,0-1.086,0,.67.67,0,0,1-1.339,0,1.882,1.882,0,0,1,3.764,0A.668.668,0,0,1,45.235,78.818Z" transform="translate(-3.623 -9.344)"/><path d="M179.788,64.654V76.442h5.517V64.654a3.876,3.876,0,1,0-2.759-6.688,3.884,3.884,0,1,0-2.758,6.688Z" transform="translate(-28.849 -9.328)" fill="#c3ddf7"/><path d="M186.958,77.638a5.444,5.444,0,0,0-10.887,0c0,7.109-6.4,7.553-6.4,17.216a11.839,11.839,0,0,0,23.678,0C193.353,85.19,186.958,84.747,186.958,77.638Z" transform="translate(-27.816 -11.839)" fill="#fdba55"/><path d="M175.586,97.326a1.351,1.351,0,1,0-1.357-1.351A1.354,1.354,0,0,0,175.586,97.326Z" transform="translate(-28.562 -15.512)" fill="#3f4963"/><path d="M176.87,101.127h-2.9a.756.756,0,1,1,0-1.511h2.9a.756.756,0,1,1,0,1.511Z" transform="translate(-28.395 -16.33)" fill="#ff6376"/><path d="M191.554,97.326a1.351,1.351,0,1,0-1.357-1.351A1.354,1.354,0,0,0,191.554,97.326Z" transform="translate(-31.18 -15.512)" fill="#3f4963"/><path d="M192.838,101.127h-2.9a.756.756,0,1,1,0-1.511h2.9a.756.756,0,1,1,0,1.511Z" transform="translate(-31.012 -16.33)" fill="#ff6376"/><path d="M181.809,99.488a2.106,2.106,0,0,1-2.108-2.1.759.759,0,0,1,1.518,0,.59.59,0,0,0,1.18,0,.759.759,0,0,1,1.518,0A2.106,2.106,0,0,1,181.809,99.488Z" transform="translate(-29.459 -15.842)" fill="#3f4963"/><path d="M185.037,99.488a2.106,2.106,0,0,1-2.109-2.1.759.759,0,0,1,1.518,0,.59.59,0,0,0,1.18,0,.759.759,0,0,1,1.518,0A2.106,2.106,0,0,1,185.037,99.488Z" transform="translate(-29.988 -15.842)" fill="#3f4963"/><path d="M185.2,85.346a.759.759,0,0,1-.691-.444l-1.185-2.6a.758.758,0,0,1,1.383-.623l1.185,2.6a.757.757,0,0,1-.691,1.067Z" transform="translate(-30.042 -13.316)" fill="#2f3953" opacity="0.2"/><path d="M189.45,88.176a.76.76,0,0,1-.692-.444l-1.862-4.1a.758.758,0,0,1,1.383-.623l1.862,4.1a.757.757,0,0,1-.691,1.067Z" transform="translate(-30.628 -13.536)" fill="#2f3953" opacity="0.2"/><path d="M174.691,88.292a1.351,1.351,0,1,0,1.357,1.351A1.354,1.354,0,0,0,174.691,88.292Zm15.563-6.611c-1.441-1.967-2.685-3.666-2.685-6.7a6.164,6.164,0,0,0-2.685-5.082V65.186a4.633,4.633,0,1,0-3.518-8.342,4.638,4.638,0,1,0-3.517,8.342V69.9a6.164,6.164,0,0,0-2.685,5.082c0,3.036-1.245,4.735-2.685,6.7a15.7,15.7,0,0,0-3.71,10.513,12.6,12.6,0,0,0,25.2,0A15.7,15.7,0,0,0,190.253,81.682Zm-14.7-21.05a3.137,3.137,0,0,1,5.29-2.265.762.762,0,0,0,1.044,0,3.127,3.127,0,1,1,2.221,5.384.757.757,0,0,0-.743.755v4.629a6.2,6.2,0,0,0-4,0V64.506a.758.758,0,0,0-.744-.755A3.143,3.143,0,0,1,175.553,60.632Zm5.811,42.593a11.069,11.069,0,0,1-11.08-11.03,14.246,14.246,0,0,1,3.419-9.623c1.464-2,2.977-4.064,2.977-7.593a4.685,4.685,0,0,1,9.37,0c0,3.528,1.513,5.595,2.976,7.593a14.242,14.242,0,0,1,3.419,9.623A11.068,11.068,0,0,1,181.365,103.225Zm6.676-14.933a1.351,1.351,0,1,0,1.357,1.351A1.354,1.354,0,0,0,188.041,88.292Zm-3.977,1.681a.758.758,0,0,0-.759.755.59.59,0,0,1-1.18,0,.759.759,0,0,0-1.518,0,.59.59,0,0,1-1.18,0,.759.759,0,0,0-1.518,0,2.108,2.108,0,0,0,3.457,1.611,2.108,2.108,0,0,0,3.457-1.611A.757.757,0,0,0,184.064,89.973Z" transform="translate(-27.667 -9.18)"/><g transform="translate(77.269 73.574)" clip-path="url(#r)"><path d="M111.946,93.18a4.941,4.941,0,0,0-1.629-.669,4.891,4.891,0,0,0,.377-1.713c.011-.254-.079-.341-.332-.33a4.948,4.948,0,0,0-1.721.375,4.89,4.89,0,0,0-.672-1.621c-.136-.215-.26-.235-.462-.083a3.377,3.377,0,0,0-.911,5.024,1.784,1.784,0,0,0,.385.384,3.41,3.41,0,0,0,5.046-.908C112.182,93.438,112.162,93.316,111.946,93.18Z" transform="translate(-94.624 -88.17)" fill="#46c79c"/><path d="M106.61,108.414a5.467,5.467,0,1,0-5.493-5.467A5.479,5.479,0,0,0,106.61,108.414Z" transform="translate(-93.846 -89.554)" fill="#593eaa"/><path d="M98.358,110.342a5.468,5.468,0,1,0-5.492-5.468A5.481,5.481,0,0,0,98.358,110.342Z" transform="translate(-92.493 -89.87)" fill="#8162d7"/><path d="M95.152,105.422a.7.7,0,1,0-.7-.7A.7.7,0,0,0,95.152,105.422Z" transform="translate(-92.752 -90.626)" fill="#3f4963"/><path d="M95.823,107.378H94.316a.371.371,0,1,1,0-.742h1.507a.371.371,0,1,1,0,.742Z" transform="translate(-92.67 -91.055)" fill="#ff9596"/><path d="M103.443,105.422a.7.7,0,1,0-.7-.7A.7.7,0,0,0,103.443,105.422Z" transform="translate(-94.112 -90.626)" fill="#3f4963"/><path d="M104.113,107.378h-1.507a.371.371,0,1,1,0-.742h1.507a.371.371,0,1,1,0,.742Z" transform="translate(-94.029 -91.055)" fill="#ff9596"/><path d="M98.387,106.528a1.072,1.072,0,0,1-1.074-1.068.373.373,0,0,1,.746,0,.327.327,0,0,0,.655,0,.373.373,0,0,1,.746,0A1.072,1.072,0,0,1,98.387,106.528Z" transform="translate(-93.222 -90.801)" fill="#3f4963"/><path d="M100.063,106.528a1.072,1.072,0,0,1-1.073-1.068.373.373,0,0,1,.746,0,.328.328,0,0,0,.655,0,.373.373,0,0,1,.746,0A1.072,1.072,0,0,1,100.063,106.528Z" transform="translate(-93.497 -90.801)" fill="#3f4963"/><path d="M112.456,112.816a5.468,5.468,0,1,0-5.493-5.467A5.48,5.48,0,0,0,112.456,112.816Z" transform="translate(-94.804 -90.276)" fill="#8162d7"/><path d="M109.249,107.9a.7.7,0,1,0-.7-.7A.7.7,0,0,0,109.249,107.9Z" transform="translate(-95.064 -91.032)" fill="#3f4963"/><path d="M109.92,109.852h-1.507a.371.371,0,1,1,0-.742h1.507a.371.371,0,1,1,0,.742Z" transform="translate(-94.981 -91.461)" fill="#ff9596"/><path d="M117.54,107.9a.7.7,0,1,0-.7-.7A.7.7,0,0,0,117.54,107.9Z" transform="translate(-96.423 -91.032)" fill="#3f4963"/><path d="M118.21,109.852H116.7a.371.371,0,1,1,0-.742h1.507a.371.371,0,1,1,0,.742Z" transform="translate(-96.34 -91.461)" fill="#ff9596"/><path d="M112.485,109a1.072,1.072,0,0,1-1.074-1.068.373.373,0,0,1,.746,0,.327.327,0,0,0,.655,0,.373.373,0,0,1,.747,0A1.072,1.072,0,0,1,112.485,109Z" transform="translate(-95.533 -91.207)" fill="#3f4963"/><path d="M114.16,109a1.072,1.072,0,0,1-1.074-1.068.373.373,0,0,1,.747,0,.327.327,0,0,0,.655,0,.373.373,0,0,1,.746,0A1.072,1.072,0,0,1,114.16,109Z" transform="translate(-95.808 -91.207)" fill="#3f4963"/><path d="M113.362,102.45a.868.868,0,0,1-.87-.867,4.554,4.554,0,0,1,4.559-4.538.866.866,0,1,1,0,1.733,2.816,2.816,0,0,0-2.819,2.806A.868.868,0,0,1,113.362,102.45Z" transform="translate(-95.711 -89.483)" fill="#6cf5c5"/><path d="M98.541,99.975a.868.868,0,0,1-.87-.866A2.816,2.816,0,0,0,94.852,96.3a.866.866,0,1,1,0-1.733,4.554,4.554,0,0,1,4.559,4.539A.868.868,0,0,1,98.541,99.975Z" transform="translate(-92.676 -89.077)" fill="#6cf5c5"/><path d="M106.793,98.048a.868.868,0,0,1-.87-.866,2.816,2.816,0,0,0-2.819-2.806.866.866,0,1,1,0-1.733,4.555,4.555,0,0,1,4.56,4.539A.868.868,0,0,1,106.793,98.048Z" transform="translate(-94.029 -88.761)" fill="#6cf5c5"/><path d="M113.537,103.559a.7.7,0,1,0,.7.7A.7.7,0,0,0,113.537,103.559Zm.992-2.184a5.877,5.877,0,0,0-3.108-1.886,2.448,2.448,0,0,1,2.339-1.725,1.238,1.238,0,1,0,0-2.475,4.939,4.939,0,0,0-4.192,2.325,5.917,5.917,0,0,0-3.2-1.842c-.014-.09-.031-.179-.049-.268a3.632,3.632,0,0,0,.7.072,3.123,3.123,0,0,0,.551-.048,4.417,4.417,0,0,0,2.547-1.737.623.623,0,0,0-.181-1,5.531,5.531,0,0,0-1.331-.614,5.442,5.442,0,0,0,.252-1.438.7.7,0,0,0-.175-.542.714.714,0,0,0-.544-.174,5.534,5.534,0,0,0-1.446.25,5.486,5.486,0,0,0-.617-1.324.628.628,0,0,0-1-.18,4.4,4.4,0,0,0-1.746,2.535,3.152,3.152,0,0,0-.046.639,4.928,4.928,0,0,0-1.793-.336,1.238,1.238,0,1,0,0,2.475,2.449,2.449,0,0,1,2.339,1.724,5.833,5.833,0,0,0-3.167,1.958,5.841,5.841,0,0,0-1.2-.382A4.933,4.933,0,0,0,94.6,93.22a1.238,1.238,0,1,0,0,2.475,2.449,2.449,0,0,1,2.34,1.725,5.841,5.841,0,1,0,5.863,9.406,5.8,5.8,0,0,0,1.812.475,5.861,5.861,0,1,0,9.918-5.926Zm-.768-5.344a.5.5,0,1,1,0,.99,3.189,3.189,0,0,0-3.192,3.177.5.5,0,0,1-.994,0A4.181,4.181,0,0,1,113.761,96.031Zm-9.693-4.593a3.7,3.7,0,0,1,1.415-2.04,4.518,4.518,0,0,1,.589,1.443.373.373,0,0,0,.516.269,4.575,4.575,0,0,1,1.527-.341,4.52,4.52,0,0,1-.342,1.52.368.368,0,0,0,.011.322.373.373,0,0,0,.259.192,4.556,4.556,0,0,1,1.449.587,3.714,3.714,0,0,1-2.048,1.408,2.863,2.863,0,0,1-1.379-.125,4.947,4.947,0,0,0-1.988-2.336A2.561,2.561,0,0,1,104.068,91.438Zm-2.573,1.9a.5.5,0,1,1,0-.99,4.182,4.182,0,0,1,4.187,4.168.5.5,0,0,1-.995,0A3.189,3.189,0,0,0,101.495,93.341Zm-6.9,1.611a.5.5,0,1,1,0-.99,4.182,4.182,0,0,1,4.186,4.168.5.5,0,0,1-.994,0A3.188,3.188,0,0,0,94.6,94.952ZM98.285,108.2a5.094,5.094,0,0,1-1.242-10.04,1.243,1.243,0,0,0,2.485,0A5.094,5.094,0,0,1,98.285,108.2Zm6.08-1.676a5.067,5.067,0,0,1-1.116-.312,5.811,5.811,0,0,0-.524-6.923,5.861,5.861,0,0,0-1.38-1.167,5.085,5.085,0,0,1,2.6-1.574,1.243,1.243,0,0,0,2.486,0A5.166,5.166,0,0,1,109.2,98.33a4.814,4.814,0,0,0-.314,1.121,5.847,5.847,0,0,0-4.679,5.72A5.808,5.808,0,0,0,104.365,106.522Zm5.707,3.745a5.1,5.1,0,0,1-1.243-10.041,1.243,1.243,0,0,0,2.486,0,5.094,5.094,0,0,1-1.242,10.04Zm-3.466-6.708a.7.7,0,1,0,.7.7A.7.7,0,0,0,106.606,103.559Zm4.867.894a.372.372,0,0,0-.373.371.327.327,0,0,1-.655,0,.373.373,0,0,0-.747,0,.327.327,0,0,1-.655,0,.373.373,0,0,0-.746,0,1.073,1.073,0,0,0,1.774.808,1.072,1.072,0,0,0,1.773-.808A.372.372,0,0,0,111.472,104.453Zm-9.721-2.962a.7.7,0,1,0,.7.7A.7.7,0,0,0,101.751,101.491Zm-2.065.894a.372.372,0,0,0-.373.371.328.328,0,0,1-.655,0,.373.373,0,0,0-.746,0,.327.327,0,0,1-.655,0,.373.373,0,0,0-.746,0,1.073,1.073,0,0,0,1.774.808,1.073,1.073,0,0,0,1.774-.808A.372.372,0,0,0,99.686,102.384Zm-4.867-.894a.7.7,0,1,0,.7.7A.7.7,0,0,0,94.82,101.491Z" transform="translate(-92.42 -88.098)"/></g></g><g transform="translate(111.145 80.639)"><path d="M23.42,16.769V5.617h2.443v9.163h4.981v1.989ZM40.061,8.828v7.941H37.727V15.594a2.5,2.5,0,0,1-1.018.955,3.159,3.159,0,0,1-1.488.345,3.375,3.375,0,0,1-1.833-.5,3.452,3.452,0,0,1-1.237-1.425,5.057,5.057,0,0,1-.439-2.161,5.163,5.163,0,0,1,.439-2.177A3.484,3.484,0,0,1,33.4,9.157a3.2,3.2,0,0,1,1.817-.533,3.047,3.047,0,0,1,1.488.36,2.607,2.607,0,0,1,1.018.971V8.828ZM35.91,15.093a1.615,1.615,0,0,0,1.347-.6,2.731,2.731,0,0,0,.47-1.723,2.731,2.731,0,0,0-.47-1.723,1.6,1.6,0,0,0-1.347-.611,1.625,1.625,0,0,0-1.363.627,2.775,2.775,0,0,0-.486,1.739,2.7,2.7,0,0,0,.47,1.707A1.7,1.7,0,0,0,35.91,15.093ZM50.541,7.1a1.219,1.219,0,0,0-.877.313,1.254,1.254,0,0,0-.329.971v.439H51V10.6h-1.66v6.171H46.97V10.6H45.482V8.828H46.97v-.5a3.31,3.31,0,0,1,.767-2.334,2.879,2.879,0,0,1,2.224-.83,3.81,3.81,0,0,1,1.347.2V7.214A3.369,3.369,0,0,0,50.541,7.1ZM57.022,8.64a2.039,2.039,0,0,1,.846.157l-.016,2.161a2.755,2.755,0,0,0-1.159-.266,1.916,1.916,0,0,0-1.441.517,1.942,1.942,0,0,0-.486,1.41v4.151H52.4V11.1a18.458,18.458,0,0,0-.125-2.271H54.5l.157,1.363a2.3,2.3,0,0,1,.924-1.143A2.634,2.634,0,0,1,57.022,8.64Zm9.607.188v7.941H64.3V15.594a2.5,2.5,0,0,1-1.018.955,3.158,3.158,0,0,1-1.488.345,3.375,3.375,0,0,1-1.833-.5,3.453,3.453,0,0,1-1.237-1.425,5.058,5.058,0,0,1-.439-2.161,5.164,5.164,0,0,1,.439-2.177,3.485,3.485,0,0,1,1.253-1.472,3.2,3.2,0,0,1,1.817-.533,3.046,3.046,0,0,1,1.488.36,2.607,2.607,0,0,1,1.018.971V8.828Zm-4.151,6.265a1.615,1.615,0,0,0,1.347-.6,2.731,2.731,0,0,0,.47-1.723,2.731,2.731,0,0,0-.47-1.723,1.6,1.6,0,0,0-1.347-.611,1.625,1.625,0,0,0-1.363.627,2.776,2.776,0,0,0-.486,1.739,2.7,2.7,0,0,0,.47,1.707A1.7,1.7,0,0,0,62.478,15.093Zm6.06,1.676V8.828H70.9v7.941ZM68.46,5.1h2.522V7.324H68.46Zm7.415,11.794a5.819,5.819,0,0,1-3.555-.971l.626-1.645a5,5,0,0,0,1.394.7,5.322,5.322,0,0,0,1.566.235,1.918,1.918,0,0,0,.94-.188.6.6,0,0,0,.329-.548.552.552,0,0,0-.235-.47,2.289,2.289,0,0,0-.83-.3l-1.3-.3a3.37,3.37,0,0,1-1.692-.8,2,2,0,0,1-.533-1.457,2.176,2.176,0,0,1,.423-1.316,2.8,2.8,0,0,1,1.206-.893,4.459,4.459,0,0,1,1.77-.329,5.311,5.311,0,0,1,1.66.266,4.871,4.871,0,0,1,1.457.72l-.658,1.582a5.094,5.094,0,0,0-1.253-.642,3.686,3.686,0,0,0-1.222-.219,1.722,1.722,0,0,0-.908.2.632.632,0,0,0-.329.564.569.569,0,0,0,.188.439,1.865,1.865,0,0,0,.7.266l1.331.3a3.548,3.548,0,0,1,1.77.846,2.065,2.065,0,0,1,.548,1.5,2.09,2.09,0,0,1-.908,1.786A4.172,4.172,0,0,1,75.875,16.894Zm11.965-3.9H82.608a2.429,2.429,0,0,0,.58,1.629,2.122,2.122,0,0,0,1.535.5,3.844,3.844,0,0,0,1.222-.2,3.9,3.9,0,0,0,1.128-.6l.627,1.6a4.264,4.264,0,0,1-1.41.72,5.768,5.768,0,0,1-1.676.251,4.36,4.36,0,0,1-3.148-1.1,4.022,4.022,0,0,1-1.143-3.023,4.607,4.607,0,0,1,.486-2.146A3.581,3.581,0,0,1,82.2,9.157a3.867,3.867,0,0,1,2.02-.533,3.354,3.354,0,0,1,2.647,1.1,4.219,4.219,0,0,1,.971,2.929Zm-3.555-2.71a1.549,1.549,0,0,0-1.1.392,1.989,1.989,0,0,0-.533,1.143H85.8Q85.615,10.284,84.284,10.284Z" transform="translate(-4.992 -0.574)"/><path d="M5.462,5.111a3.559,3.559,0,0,1,.849,2.278A3.559,3.559,0,0,1,4.033,6.54a3.559,3.559,0,0,1-.849-2.278A3.559,3.559,0,0,1,5.462,5.111Z" transform="translate(-0.604 -0.392)" fill="#46c79c" stroke="#000" stroke-width="0.8"/><path d="M10.088,6.487a3.559,3.559,0,0,1-2.278.849,3.559,3.559,0,0,1,.849-2.278,3.559,3.559,0,0,1,2.278-.849A3.558,3.558,0,0,1,10.088,6.487Z" transform="translate(-1.607 -0.38)" fill="#46c79c" stroke="#000" stroke-width="0.8"/><path d="M8.218,4.662A3.559,3.559,0,0,1,7.205,6.869,3.559,3.559,0,0,1,6.192,4.662,3.559,3.559,0,0,1,7.205,2.455,3.559,3.559,0,0,1,8.218,4.662Z" transform="translate(-1.256)" fill="#65f7c4" stroke="#000" stroke-width="0.8"/><path d="M9.824,8.776a5.56,5.56,0,0,1,1.69,3.809A7.183,7.183,0,0,1,9.5,17.046a8.32,8.32,0,0,1-1.841,1.56,3.466,3.466,0,0,1-1.7.58,3.471,3.471,0,0,1-1.7-.58,8.336,8.336,0,0,1-1.843-1.56A7.179,7.179,0,0,1,.4,12.584,5.56,5.56,0,0,1,9.824,8.776Z" transform="translate(0 -1.031)" fill="#ff6376" stroke="#000" stroke-width="0.8"/><path d="M4.468,18.882a.263.263,0,0,1-.263-.263v-.282a.263.263,0,1,1,.526,0v.282a.263.263,0,0,1-.263.263Z" transform="translate(-0.825 -3.387)" fill="#fc0"/><path d="M5.006,11.368a.263.263,0,0,1-.263-.263v-.282a.263.263,0,1,1,.526,0v.282a.263.263,0,0,1-.263.263Z" transform="translate(-0.942 -1.758)" fill="#fc0"/><path d="M3.289,9.955a.263.263,0,0,1-.263-.263V9.41a.263.263,0,0,1,.526,0v.282a.263.263,0,0,1-.263.263Z" transform="translate(-0.57 -1.451)" fill="#fc0"/><path d="M9.36,10.739a.263.263,0,0,1-.263-.263v-.282a.263.263,0,1,1,.526,0v.279a.263.263,0,0,1-.263.266Z" transform="translate(-1.886 -1.621)" fill="#fc0"/><path d="M11.756,10.425a.263.263,0,0,1-.263-.263V9.88a.263.263,0,0,1,.526,0v.282a.263.263,0,0,1-.263.263Z" transform="translate(-2.406 -1.553)" fill="#fc0"/><path d="M7.886,8.488a.263.263,0,0,1-.263-.263V7.943a.263.263,0,0,1,.526,0v.282a.263.263,0,0,1-.263.263Z" transform="translate(-1.566 -1.133)" fill="#fc0"/><path d="M2.767,17.461A.263.263,0,0,1,2.5,17.2v-.282a.263.263,0,1,1,.526,0V17.2a.263.263,0,0,1-.263.263Z" transform="translate(-0.456 -3.079)" fill="#fc0"/><path d="M9.539,16.858a.263.263,0,0,1-.263-.263v-.282a.263.263,0,0,1,.526,0V16.6a.263.263,0,0,1-.263.263Z" transform="translate(-1.925 -2.948)" fill="#fc0"/><path d="M11.756,18.256a.263.263,0,0,1-.263-.263v-.282a.263.263,0,1,1,.526,0v.282a.263.263,0,0,1-.263.263Z" transform="translate(-2.406 -3.252)" fill="#fc0"/><path d="M5.991,21.07a.263.263,0,0,1-.263-.263v-.282a.263.263,0,1,1,.526,0v.282a.263.263,0,0,1-.263.263Z" transform="translate(-1.155 -3.862)" fill="#fc0"/><path d="M7.423,18.882a.263.263,0,0,1-.263-.263v-.282a.263.263,0,1,1,.526,0v.282a.263.263,0,0,1-.263.263Z" transform="translate(-1.466 -3.387)" fill="#fc0"/><path d="M9.058,20.462A.263.263,0,0,1,8.8,20.2v-.282a.263.263,0,1,1,.526,0V20.2a.263.263,0,0,1-.263.263Z" transform="translate(-1.821 -3.73)" fill="#fc0"/><path d="M4.191,14.271a1.039,1.039,0,1,0-1.039-1.039A1.039,1.039,0,0,0,4.191,14.271Z" transform="translate(-0.597 -2.112)"/><path d="M10.226,14.271a1.039,1.039,0,1,0-1.039-1.039A1.039,1.039,0,0,0,10.226,14.271Z" transform="translate(-1.906 -2.112)"/><path d="M2.78,16.306h-1.1a.263.263,0,1,1,0-.526h1.1a.263.263,0,1,1,0,.526Z" transform="translate(-0.221 -2.89)" fill="#ff9596"/><path d="M12.858,16.306h-1.1a.263.263,0,1,1,0-.526h1.1a.263.263,0,1,1,0,.526Z" transform="translate(-2.407 -2.89)" fill="#ff9596"/></g></g></g></svg>