<svg width="112" height="25" viewBox="0 0 112 25" fill="none" xmlns="http://www.w3.org/2000/svg">
<path d="M23.42 20V5.76001H26.54V17.46H32.9V20H23.42Z" fill="black"/>
<path d="M44.669 9.86001V20H41.689V18.5C41.3824 19.02 40.949 19.4267 40.389 19.72C39.829 20.0133 39.1957 20.16 38.489 20.16C37.609 20.16 36.829 19.9467 36.149 19.52C35.4824 19.0933 34.9557 18.4867 34.569 17.7C34.1957 16.9 34.009 15.98 34.009 14.94C34.009 13.9 34.1957 12.9733 34.569 12.16C34.9557 11.3467 35.489 10.72 36.169 10.28C36.849 9.82667 37.6224 9.60001 38.489 9.60001C39.1957 9.60001 39.829 9.75334 40.389 10.06C40.949 10.3667 41.3824 10.78 41.689 11.3V9.86001H44.669ZM39.369 17.86C40.1157 17.86 40.689 17.6067 41.089 17.1C41.489 16.5933 41.689 15.86 41.689 14.9C41.689 13.94 41.489 13.2067 41.089 12.7C40.689 12.18 40.1157 11.92 39.369 11.92C38.6224 11.92 38.0424 12.1867 37.629 12.72C37.2157 13.2533 37.009 13.9933 37.009 14.94C37.009 15.8867 37.209 16.6133 37.609 17.12C38.0224 17.6133 38.609 17.86 39.369 17.86Z" fill="black"/>
<path d="M58.0517 7.66001C57.585 7.66001 57.2117 7.79334 56.9317 8.06001C56.6517 8.31334 56.5117 8.72667 56.5117 9.30001V9.86001H58.6317V12.12H56.5117V20H53.4917V12.12H51.5917V9.86001H53.4917V9.22001C53.4917 7.94001 53.8184 6.94667 54.4717 6.24001C55.125 5.53334 56.0717 5.18001 57.3117 5.18001C58.005 5.18001 58.5784 5.26667 59.0317 5.44001V7.80001C58.645 7.70667 58.3184 7.66001 58.0517 7.66001Z" fill="black"/>
<path d="M66.327 9.62001C66.7537 9.62001 67.1137 9.68667 67.407 9.82001L67.387 12.58C66.8937 12.3533 66.4003 12.24 65.907 12.24C65.107 12.24 64.4937 12.46 64.067 12.9C63.6537 13.3267 63.447 13.9267 63.447 14.7V20H60.427V12.76C60.427 11.68 60.3737 10.7133 60.267 9.86001H63.107L63.307 11.6C63.5603 10.96 63.9537 10.4733 64.487 10.14C65.0337 9.79334 65.647 9.62001 66.327 9.62001Z" fill="black"/>
<path d="M78.5948 9.86001V20H75.6148V18.5C75.3082 19.02 74.8748 19.4267 74.3148 19.72C73.7548 20.0133 73.1215 20.16 72.4148 20.16C71.5348 20.16 70.7548 19.9467 70.0748 19.52C69.4082 19.0933 68.8815 18.4867 68.4948 17.7C68.1215 16.9 67.9348 15.98 67.9348 14.94C67.9348 13.9 68.1215 12.9733 68.4948 12.16C68.8815 11.3467 69.4148 10.72 70.0948 10.28C70.7748 9.82667 71.5482 9.60001 72.4148 9.60001C73.1215 9.60001 73.7548 9.75334 74.3148 10.06C74.8748 10.3667 75.3082 10.78 75.6148 11.3V9.86001H78.5948ZM73.2948 17.86C74.0415 17.86 74.6148 17.6067 75.0148 17.1C75.4148 16.5933 75.6148 15.86 75.6148 14.9C75.6148 13.94 75.4148 13.2067 75.0148 12.7C74.6148 12.18 74.0415 11.92 73.2948 11.92C72.5482 11.92 71.9682 12.1867 71.5548 12.72C71.1415 13.2533 70.9348 13.9933 70.9348 14.94C70.9348 15.8867 71.1348 16.6133 71.5348 17.12C71.9482 17.6133 72.5348 17.86 73.2948 17.86Z" fill="black"/>
<path d="M81.0325 20V9.86001H84.0525V20H81.0325ZM80.9325 5.10001H84.1525V7.94001H80.9325V5.10001Z" fill="black"/>
<path d="M90.4008 20.16C88.4808 20.16 86.9674 19.7467 85.8608 18.92L86.6608 16.82C87.1941 17.2067 87.7874 17.5067 88.4408 17.72C89.0941 17.92 89.7608 18.02 90.4408 18.02C90.9608 18.02 91.3608 17.94 91.6408 17.78C91.9208 17.62 92.0608 17.3867 92.0608 17.08C92.0608 16.8267 91.9608 16.6267 91.7608 16.48C91.5608 16.3333 91.2074 16.2067 90.7008 16.1L89.0408 15.72C88.0674 15.5067 87.3474 15.1667 86.8808 14.7C86.4274 14.2333 86.2008 13.6133 86.2008 12.84C86.2008 12.2133 86.3808 11.6533 86.7408 11.16C87.1141 10.6667 87.6274 10.2867 88.2808 10.02C88.9341 9.74001 89.6874 9.60001 90.5408 9.60001C91.2608 9.60001 91.9674 9.71334 92.6608 9.94001C93.3541 10.1533 93.9741 10.46 94.5208 10.86L93.6808 12.88C93.1608 12.52 92.6274 12.2467 92.0808 12.06C91.5474 11.8733 91.0274 11.78 90.5208 11.78C90.0274 11.78 89.6408 11.8667 89.3608 12.04C89.0808 12.2133 88.9408 12.4533 88.9408 12.76C88.9408 12.9867 89.0208 13.1733 89.1808 13.32C89.3541 13.4533 89.6541 13.5667 90.0808 13.66L91.7808 14.04C92.8208 14.28 93.5741 14.64 94.0408 15.12C94.5074 15.6 94.7408 16.24 94.7408 17.04C94.7408 18 94.3541 18.76 93.5808 19.32C92.8074 19.88 91.7474 20.16 90.4008 20.16Z" fill="black"/>
<path d="M105.679 15.18H98.9994C99.0527 16.1267 99.2994 16.82 99.7394 17.26C100.179 17.6867 100.833 17.9 101.699 17.9C102.219 17.9 102.739 17.8133 103.259 17.64C103.779 17.4667 104.259 17.2133 104.699 16.88L105.499 18.92C105.019 19.3067 104.419 19.6133 103.699 19.84C102.993 20.0533 102.279 20.16 101.559 20.16C99.8527 20.16 98.5127 19.6933 97.5394 18.76C96.566 17.8133 96.0794 16.5267 96.0794 14.9C96.0794 13.8733 96.286 12.96 96.6994 12.16C97.126 11.3467 97.7194 10.72 98.4794 10.28C99.2394 9.82667 100.099 9.60001 101.059 9.60001C102.486 9.60001 103.613 10.0667 104.439 11C105.266 11.92 105.679 13.1667 105.679 14.74V15.18ZM101.139 11.72C100.566 11.72 100.099 11.8867 99.7394 12.22C99.3927 12.5533 99.166 13.04 99.0594 13.68H103.079C102.919 12.3733 102.273 11.72 101.139 11.72Z" fill="black"/>
<path d="M6.09333 5.3457C6.78466 6.15798 7.16847 7.18783 7.17702 8.255C6.10984 8.24646 5.08 7.86265 4.26771 7.17133C3.57639 6.35904 3.19259 5.3292 3.18404 4.26203C4.25121 4.27058 5.28105 4.65438 6.09333 5.3457Z" fill="#46C79C" stroke="black" stroke-width="0.8"/>
<path d="M10.7194 7.11834C9.90714 7.80973 8.87726 8.19355 7.81007 8.20201C7.81862 7.13483 8.20241 6.10499 8.89373 5.2927C9.70602 4.60138 10.7359 4.21758 11.803 4.20903C11.7946 5.27623 11.4108 6.3061 10.7194 7.11834Z" fill="#46C79C" stroke="black" stroke-width="0.8"/>
<path d="M8.77878 5.27301C8.69132 6.33451 8.23375 7.33194 7.48552 8.09081C6.73728 7.33194 6.27972 6.3345 6.19226 5.273C6.27964 4.21148 6.73722 3.21402 7.48552 2.45521C8.23375 3.21407 8.69132 4.21151 8.77878 5.27301Z" fill="#65F7C4" stroke="black" stroke-width="0.8"/>
<path d="M12.4338 9.20915C13.7565 10.4893 14.5302 12.233 14.592 14.0725C14.5895 16.0046 13.4979 18.1195 12.0187 19.77C11.2831 20.5909 10.4658 21.2804 9.66828 21.762C8.86459 22.2474 8.11245 22.503 7.5 22.503C6.88751 22.503 6.13483 22.2474 5.33033 21.7619C4.53205 21.2802 3.71368 20.5907 2.97708 19.7698C1.49589 18.1193 0.402452 16.0043 0.400004 14.0725C0.461807 12.233 1.23554 10.4893 2.55819 9.20915C3.88242 7.92748 5.6531 7.21091 7.49599 7.21091C9.33889 7.21091 11.1096 7.92748 12.4338 9.20915Z" fill="#FF6376" stroke="black" stroke-width="0.8"/>
<path d="M4.54095 19.106C4.45184 19.106 4.36637 19.0706 4.30336 19.0076C4.24035 18.9446 4.20496 18.8591 4.20496 18.77V18.41C4.20496 18.3209 4.24035 18.2354 4.30336 18.1724C4.36637 18.1094 4.45184 18.074 4.54095 18.074C4.63007 18.074 4.71552 18.1094 4.77853 18.1724C4.84155 18.2354 4.87695 18.3209 4.87695 18.41V18.77C4.87695 18.8591 4.84155 18.9446 4.77853 19.0076C4.71552 19.0706 4.63007 19.106 4.54095 19.106V19.106Z" fill="#FFCC00"/>
<path d="M5.07898 11.592C4.98987 11.592 4.90441 11.5566 4.8414 11.4936C4.77839 11.4306 4.74298 11.3451 4.74298 11.256V10.896C4.74298 10.8069 4.77839 10.7215 4.8414 10.6584C4.90441 10.5954 4.98987 10.56 5.07898 10.56C5.16809 10.56 5.25356 10.5954 5.31657 10.6584C5.37959 10.7215 5.41498 10.8069 5.41498 10.896V11.256C5.41498 11.3451 5.37959 11.4306 5.31657 11.4936C5.25356 11.5566 5.16809 11.592 5.07898 11.592V11.592Z" fill="#FFCC00"/>
<path d="M3.362 10.179C3.31788 10.179 3.27418 10.1703 3.23341 10.1535C3.19265 10.1366 3.15561 10.1118 3.1244 10.0806C3.0932 10.0494 3.06846 10.0124 3.05157 9.9716C3.03469 9.93084 3.026 9.88716 3.026 9.84303V9.48303C3.026 9.39392 3.06139 9.30845 3.1244 9.24544C3.18742 9.18243 3.27289 9.14703 3.362 9.14703C3.45111 9.14703 3.53657 9.18243 3.59958 9.24544C3.66259 9.30845 3.698 9.39392 3.698 9.48303V9.84303C3.698 9.93215 3.66259 10.0176 3.59958 10.0806C3.53657 10.1436 3.45111 10.179 3.362 10.179V10.179Z" fill="#FFCC00"/>
<path d="M9.43298 10.963C9.34387 10.963 9.25842 10.9276 9.1954 10.8646C9.13239 10.8016 9.09698 10.7161 9.09698 10.627V10.267C9.09698 10.1779 9.13239 10.0925 9.1954 10.0294C9.25842 9.96644 9.34387 9.93103 9.43298 9.93103C9.5221 9.93103 9.60758 9.96644 9.67059 10.0294C9.73361 10.0925 9.76898 10.1779 9.76898 10.267V10.623C9.76951 10.6675 9.76122 10.7116 9.74457 10.7528C9.72792 10.7941 9.70325 10.8316 9.672 10.8632C9.64074 10.8948 9.60353 10.9199 9.5625 10.9371C9.52147 10.9542 9.47745 10.963 9.43298 10.963Z" fill="#FFCC00"/>
<path d="M11.829 10.649C11.7399 10.649 11.6544 10.6136 11.5914 10.5506C11.5284 10.4876 11.493 10.4021 11.493 10.313V9.953C11.493 9.86389 11.5284 9.77844 11.5914 9.71542C11.6544 9.65241 11.7399 9.617 11.829 9.617C11.9181 9.617 12.0036 9.65241 12.0666 9.71542C12.1296 9.77844 12.165 9.86389 12.165 9.953V10.313C12.165 10.4021 12.1296 10.4876 12.0666 10.5506C12.0036 10.6136 11.9181 10.649 11.829 10.649V10.649Z" fill="#FFCC00"/>
<path d="M7.95898 8.71202C7.86987 8.71202 7.78442 8.67661 7.72141 8.6136C7.65839 8.55059 7.62299 8.46514 7.62299 8.37602V8.01602C7.62299 7.92691 7.65839 7.84144 7.72141 7.77843C7.78442 7.71541 7.86987 7.68002 7.95898 7.68002C8.0481 7.68002 8.13355 7.71541 8.19656 7.77843C8.25958 7.84144 8.29498 7.92691 8.29498 8.01602V8.37602C8.29498 8.42015 8.28629 8.46384 8.26941 8.50461C8.25252 8.54537 8.22776 8.5824 8.19656 8.6136C8.16536 8.6448 8.12832 8.66956 8.08755 8.68645C8.04679 8.70333 8.00311 8.71202 7.95898 8.71202V8.71202Z" fill="#FFCC00"/>
<path d="M2.83997 17.685C2.75085 17.685 2.6654 17.6496 2.60239 17.5866C2.53937 17.5236 2.50397 17.4381 2.50397 17.349V16.989C2.50397 16.8999 2.53937 16.8144 2.60239 16.7514C2.6654 16.6884 2.75085 16.653 2.83997 16.653C2.92908 16.653 3.01455 16.6884 3.07756 16.7514C3.14057 16.8144 3.17596 16.8999 3.17596 16.989V17.349C3.17596 17.4381 3.14057 17.5236 3.07756 17.5866C3.01455 17.6496 2.92908 17.685 2.83997 17.685V17.685Z" fill="#FFCC00"/>
<path d="M9.61194 17.082C9.52283 17.082 9.43737 17.0466 9.37436 16.9836C9.31135 16.9206 9.27594 16.8351 9.27594 16.746V16.386C9.27594 16.2969 9.31135 16.2114 9.37436 16.1484C9.43737 16.0854 9.52283 16.05 9.61194 16.05C9.70105 16.05 9.78654 16.0854 9.84955 16.1484C9.91256 16.2114 9.94797 16.2969 9.94797 16.386V16.746C9.94797 16.8351 9.91256 16.9206 9.84955 16.9836C9.78654 17.0466 9.70105 17.082 9.61194 17.082V17.082Z" fill="#FFCC00"/>
<path d="M11.829 18.48C11.7399 18.48 11.6544 18.4446 11.5914 18.3816C11.5284 18.3186 11.493 18.2331 11.493 18.144V17.784C11.493 17.6949 11.5284 17.6094 11.5914 17.5464C11.6544 17.4834 11.7399 17.448 11.829 17.448C11.9181 17.448 12.0036 17.4834 12.0666 17.5464C12.1296 17.6094 12.165 17.6949 12.165 17.784V18.144C12.165 18.2331 12.1296 18.3186 12.0666 18.3816C12.0036 18.4446 11.9181 18.48 11.829 18.48V18.48Z" fill="#FFCC00"/>
<path d="M6.06396 21.294C5.97485 21.294 5.88938 21.2586 5.82637 21.1956C5.76336 21.1326 5.72797 21.0472 5.72797 20.958V20.598C5.72797 20.5089 5.76336 20.4235 5.82637 20.3604C5.88938 20.2974 5.97485 20.262 6.06396 20.262C6.15308 20.262 6.23853 20.2974 6.30154 20.3604C6.36456 20.4235 6.39996 20.5089 6.39996 20.598V20.958C6.39996 21.0472 6.36456 21.1326 6.30154 21.1956C6.23853 21.2586 6.15308 21.294 6.06396 21.294V21.294Z" fill="#FFCC00"/>
<path d="M7.49597 19.106C7.45185 19.106 7.40815 19.0973 7.36739 19.0804C7.32662 19.0636 7.28958 19.0388 7.25838 19.0076C7.22718 18.9764 7.20243 18.9394 7.18555 18.8986C7.16866 18.8578 7.15997 18.8141 7.15997 18.77V18.41C7.15997 18.3209 7.19536 18.2354 7.25838 18.1724C7.32139 18.1094 7.40686 18.074 7.49597 18.074C7.58508 18.074 7.67054 18.1094 7.73355 18.1724C7.79656 18.2354 7.83197 18.3209 7.83197 18.41V18.77C7.83197 18.8591 7.79656 18.9446 7.73355 19.0076C7.67054 19.0706 7.58508 19.106 7.49597 19.106V19.106Z" fill="#FFCC00"/>
<path d="M9.13098 20.686C9.08686 20.686 9.04315 20.6773 9.00238 20.6604C8.96161 20.6435 8.92457 20.6188 8.89337 20.5876C8.86217 20.5564 8.83744 20.5193 8.82056 20.4786C8.80367 20.4378 8.79498 20.3941 8.79498 20.35V19.99C8.79498 19.9009 8.83036 19.8154 8.89337 19.7524C8.95638 19.6894 9.04187 19.654 9.13098 19.654C9.22009 19.654 9.30555 19.6894 9.36856 19.7524C9.43157 19.8154 9.46698 19.9009 9.46698 19.99V20.35C9.46698 20.4391 9.43157 20.5246 9.36856 20.5876C9.30555 20.6506 9.22009 20.686 9.13098 20.686V20.686Z" fill="#FFCC00"/>
<path d="M4.47898 14.847C5.21186 14.847 5.80598 14.2529 5.80598 13.52C5.80598 12.7871 5.21186 12.193 4.47898 12.193C3.7461 12.193 3.15198 12.7871 3.15198 13.52C3.15198 14.2529 3.7461 14.847 4.47898 14.847Z" fill="black"/>
<path d="M10.514 14.847C11.2468 14.847 11.841 14.2529 11.841 13.52C11.841 12.7871 11.2468 12.193 10.514 12.193C9.78107 12.193 9.18695 12.7871 9.18695 13.52C9.18695 14.2529 9.78107 14.847 10.514 14.847Z" fill="black"/>
<path d="M3.15598 16.452H1.75599C1.66688 16.452 1.58141 16.4166 1.5184 16.3536C1.45539 16.2906 1.41998 16.2051 1.41998 16.116C1.41998 16.0269 1.45539 15.9414 1.5184 15.8784C1.58141 15.8154 1.66688 15.78 1.75599 15.78H3.15598C3.2451 15.78 3.33057 15.8154 3.39358 15.8784C3.45659 15.9414 3.49199 16.0269 3.49199 16.116C3.49199 16.2051 3.45659 16.2906 3.39358 16.3536C3.33057 16.4166 3.2451 16.452 3.15598 16.452V16.452Z" fill="#FF9596"/>
<path d="M13.234 16.452H11.834C11.7449 16.452 11.6594 16.4166 11.5964 16.3536C11.5334 16.2906 11.498 16.2051 11.498 16.116C11.498 16.0269 11.5334 15.9414 11.5964 15.8784C11.6594 15.8154 11.7449 15.78 11.834 15.78H13.234C13.3231 15.78 13.4085 15.8154 13.4716 15.8784C13.5346 15.9414 13.57 16.0269 13.57 16.116C13.57 16.2051 13.5346 16.2906 13.4716 16.3536C13.4085 16.4166 13.3231 16.452 13.234 16.452V16.452Z" fill="#FF9596"/>
</svg>
